<?xml version="1.0" encoding="utf-8"?>
<!-- Generator: Adobe Illustrator 23.1.0, SVG Export Plug-In . SVG Version: 6.00 Build 0)  -->
<svg version="1.1" xmlns="http://www.w3.org/2000/svg" xmlns:xlink="http://www.w3.org/1999/xlink" x="0px" y="0px"
	 viewBox="0 0 130 130" style="enable-background:new 0 0 130 130;" xml:space="preserve">
<style type="text/css">
	.st0{stroke:#000000;stroke-width:2.2587;stroke-linecap:round;stroke-linejoin:round;stroke-miterlimit:10;}
	.st1{clip-path:url(#SVGID_2_);}
	.st2{clip-path:url(#SVGID_4_);}
</style>
<g id="圖層_1">
	<g>
		<g>
			<path d="M30.2,94.6c-0.3,0-0.7-0.2-0.9-0.4c-6.4-8.4-9.7-18.5-9.7-29.1c0-0.6,0.5-1.1,1.1-1.1s1.1,0.5,1.1,1.1
				c0,10.1,3.2,19.7,9.3,27.8c0.4,0.5,0.3,1.2-0.2,1.6C30.6,94.5,30.4,94.6,30.2,94.6z"/>
			<path d="M106.8,93.2c-0.2,0-0.4-0.1-0.6-0.2c-0.5-0.4-0.6-1.1-0.3-1.6c3.7-5.2,6.1-11,7.4-17.3c0.1-0.6,0.7-1,1.3-0.9
				c0.6,0.1,1,0.7,0.9,1.3c-1.3,6.5-3.9,12.6-7.8,18.1C107.5,93.1,107.1,93.2,106.8,93.2z"/>
			<path d="M92.3,25.5c-0.2,0-0.4-0.1-0.6-0.2c-7.1-4.3-15.4-6.6-23.7-6.6c-7.7,0-15.3,1.9-22,5.6c-0.5,0.3-1.2,0.1-1.5-0.5
				c-0.3-0.5-0.1-1.2,0.5-1.5c7-3.8,15-5.8,23.1-5.8c8.8,0,17.4,2.4,24.9,6.9c0.5,0.3,0.7,1,0.4,1.6C93,25.3,92.7,25.5,92.3,25.5z"
				/>
		</g>
		<g>
			<g>
				<g>
					<path d="M50.4,60.4c-0.1,0-0.1,0-0.2,0l-32.1-5.6c-0.3-0.1-0.6-0.3-0.8-0.6c-0.2-0.3-0.2-0.7-0.1-1L29.4,24
						c0.1-0.3,0.4-0.6,0.8-0.7c0.4-0.1,0.7,0,1,0.2l25.8,20.7c0.4,0.3,0.5,0.8,0.3,1.3l-5.8,14.1C51.3,60.1,50.9,60.4,50.4,60.4z
						 M19.9,52.7L49.7,58l5.2-12.5l-24-19.3L19.9,52.7z"/>
					<path d="M55.3,62.4c-0.1,0-0.3,0-0.4-0.1l-4.9-2c-0.6-0.2-0.9-0.9-0.6-1.5c0.2-0.6,0.9-0.9,1.5-0.6l3.9,1.6l5-12l-3.9-1.6
						c-0.6-0.2-0.9-0.9-0.6-1.5c0.2-0.6,0.9-0.9,1.5-0.6l4.9,2c0.3,0.1,0.5,0.3,0.6,0.6c0.1,0.3,0.1,0.6,0,0.9l-5.8,14.1
						C56.2,62.2,55.8,62.4,55.3,62.4z"/>
					<path d="M38.1,73.3c-0.1,0-0.3,0-0.4-0.1l-5.3-2.2c-0.6-0.2-0.9-0.9-0.6-1.5L37,57.2c0.2-0.6,0.9-0.9,1.5-0.6
						c0.6,0.2,0.9,0.9,0.6,1.5l-4.7,11.4l3.2,1.3l5.1-12.3c0.2-0.6,0.9-0.9,1.5-0.6c0.6,0.2,0.9,0.9,0.6,1.5l-5.5,13.4
						C39,73.1,38.6,73.3,38.1,73.3z"/>
				</g>
				<g>
					<path d="M15.8,27.4c-0.3,0-0.6-0.1-0.8-0.3l-3.7-3.7c-0.4-0.4-0.4-1.2,0-1.6c0.4-0.4,1.2-0.4,1.6,0l3.7,3.7
						c0.4,0.4,0.4,1.2,0,1.6C16.4,27.3,16.1,27.4,15.8,27.4z"/>
					<path d="M11.2,34.7c-0.1,0-0.3,0-0.4-0.1l-4.3-1.8c-0.6-0.2-0.9-0.9-0.6-1.5c0.2-0.6,0.9-0.9,1.5-0.6l4.3,1.8
						c0.6,0.2,0.9,0.9,0.6,1.5C12.1,34.4,11.6,34.7,11.2,34.7z"/>
					<path d="M9.3,43.1L9.3,43.1l-5.2,0C3.5,43.1,3,42.6,3,42c0-0.6,0.5-1.1,1.1-1.1h0l5.2,0c0.6,0,1.1,0.5,1.1,1.1
						C10.4,42.6,9.9,43.1,9.3,43.1z"/>
				</g>
			</g>
			<g>
				<defs>
					<polygon id="SVGID_1_" points="64.5,68 73.7,22.9 128.4,26.6 122.8,71.5 78.2,68.4 73.6,82.6 69,70.1 					"/>
				</defs>
				<clipPath id="SVGID_2_">
					<use xlink:href="#SVGID_1_"  style="overflow:visible;"/>
				</clipPath>
				<g class="st1">
					<path d="M66.4,96.1c-0.2,0-0.4,0-0.7-0.1c-0.8-0.2-1.4-0.6-1.9-1.3c-0.4-0.7-0.6-1.5-0.4-2.3l14.6-63.7c0.4-1.6,2-2.6,3.6-2.2
						c1.6,0.4,2.6,2,2.2,3.6L69.3,93.8c-0.2,0.8-0.6,1.4-1.3,1.9C67.5,96,66.9,96.1,66.4,96.1z M81,28.7c-0.3,0-0.6,0.2-0.7,0.6
						L65.7,93c0,0.2,0,0.4,0.1,0.5s0.3,0.3,0.4,0.3c0,0,0,0,0,0c0.2,0,0.4,0,0.5-0.1c0.2-0.1,0.3-0.3,0.3-0.5l14.6-63.7
						c0.1-0.4-0.2-0.8-0.5-0.9C81.1,28.7,81.1,28.7,81,28.7z"/>
					<g>
						<path d="M115.9,66.4c-0.1,0-0.2,0-0.2,0L103,63.7H88.6c-0.1,0-0.2,0-0.2,0l-12.1-2.6c-0.6-0.1-1-0.7-0.9-1.3
							c0.1-0.6,0.7-1,1.3-0.9l12,2.6h14.4c0.1,0,0.2,0,0.2,0l11.6,2.4l6.5-28.2L106.6,32l-10.9,1.3c-0.1,0-0.3,0-0.4,0l-12.1-2.6
							c-0.6-0.1-1-0.7-0.9-1.3c0.1-0.6,0.7-1,1.3-0.9l12,2.6l10.9-1.3c0.1,0,0.3,0,0.4,0l16.1,4c0.6,0.1,1,0.7,0.8,1.3l-7,30.4
							C116.8,66,116.4,66.4,115.9,66.4z"/>
					</g>
				</g>
			</g>
			<g>
				<path d="M49.8,119.4c-1.8,0-3.5-1.1-4.1-2.9L32.3,79.5c-0.8-2.3,0.3-4.8,2.6-5.6l24.8-9c0.3-0.1,0.6-0.1,0.9,0l9,4.2
					c0.3,0.1,0.5,0.4,0.6,0.6l12.2,33.4c0.8,2.3-0.3,4.8-2.6,5.6l-28.3,10.3C50.8,119.3,50.3,119.4,49.8,119.4z M60,67.2L35.7,76
					c-1.1,0.4-1.7,1.6-1.3,2.7l13.5,36.9c0.4,1.1,1.6,1.7,2.7,1.3l28.3-10.3c1.1-0.4,1.7-1.6,1.3-2.7l-12-33L60,67.2z"/>
				<path d="M64.4,72.8c-1.8,0-3.5-1.1-4.1-2.9L59,66.3c-0.2-0.4,0-0.9,0.3-1.2c0.3-0.3,0.8-0.4,1.2-0.2l9,4.2
					c0.4,0.2,0.7,0.6,0.7,1.1c0,0.5-0.3,0.9-0.7,1l-3.5,1.3C65.4,72.7,64.9,72.8,64.4,72.8z M62,68.1l0.4,1l0,0
					c0.4,1.1,1.6,1.7,2.7,1.3l1-0.4L62,68.1z"/>
				<g>
					<path d="M43.6,85.3c-0.5,0-0.9-0.3-1.1-0.7c-0.2-0.6,0.1-1.2,0.7-1.4l4.9-1.8c0.6-0.2,1.2,0.1,1.4,0.7c0.2,0.6-0.1,1.2-0.7,1.4
						L44,85.3C43.8,85.3,43.7,85.3,43.6,85.3z"/>
					<path d="M52,108.6c-0.5,0-0.9-0.3-1.1-0.7c-0.2-0.6,0.1-1.2,0.7-1.4l19.6-7.1c0.6-0.2,1.2,0.1,1.4,0.7c0.2,0.6-0.1,1.2-0.7,1.4
						l-19.6,7.1C52.3,108.6,52.2,108.6,52,108.6z"/>
					<path d="M49.2,100.8c-0.5,0-0.9-0.3-1.1-0.7c-0.2-0.6,0.1-1.2,0.7-1.4l19.6-7.1c0.6-0.2,1.2,0.1,1.4,0.7
						c0.2,0.6-0.1,1.2-0.7,1.4l-19.6,7.1C49.5,100.8,49.3,100.8,49.2,100.8z"/>
					<path d="M46.4,93.1c-0.5,0-0.9-0.3-1.1-0.7c-0.2-0.6,0.1-1.2,0.7-1.4l19.6-7.1c0.6-0.2,1.2,0.1,1.4,0.7
						c0.2,0.6-0.1,1.2-0.7,1.4L46.8,93C46.7,93.1,46.5,93.1,46.4,93.1z"/>
				</g>
			</g>
			<g>
				<path d="M94.4,110.3c-0.2,0-0.5,0-0.7-0.1l-1.8-0.4c-1-0.2-1.9-0.8-2.5-1.6c-0.6-0.9-0.8-1.9-0.6-2.9L94.2,77
					c0.1-0.3,0.2-0.6,0.5-0.7c0.2-0.2,0.6-0.2,0.8-0.2l7.2,1.4c0.6,0.1,1,0.7,0.9,1.3l-5.5,28.3c-0.2,1-0.8,1.9-1.6,2.5
					C95.9,110.1,95.1,110.3,94.4,110.3z M96.2,78.6L91,105.8c-0.1,0.4,0,0.9,0.3,1.2s0.6,0.6,1,0.7l1.8,0.4c0.4,0.1,0.9,0,1.2-0.2
					c0.4-0.2,0.6-0.6,0.7-1l5.3-27.2L96.2,78.6z"/>
				<path d="M102.6,79.8c-0.5,0-0.9-0.3-1.1-0.8l-1.7-5.5L96.2,78c-0.4,0.5-1.1,0.6-1.6,0.2c-0.5-0.4-0.5-1.1-0.2-1.6l3.7-4.5
					c0.5-0.6,1.3-0.9,2.1-0.7c0.8,0.1,1.4,0.7,1.7,1.4l1.8,5.5c0.2,0.6-0.1,1.2-0.7,1.4C102.8,79.8,102.7,79.8,102.6,79.8z"/>
			</g>
		</g>
	</g>
</g>
<g id="分離模式">
</g>
<g id="圖層_7">
</g>
</svg>
