<?xml version="1.0" encoding="utf-8"?>
<!-- Generator: Adobe Illustrator 23.1.0, SVG Export Plug-In . SVG Version: 6.00 Build 0)  -->
<svg version="1.1" xmlns="http://www.w3.org/2000/svg" xmlns:xlink="http://www.w3.org/1999/xlink" x="0px" y="0px"
	 viewBox="0 0 130 130" style="enable-background:new 0 0 130 130;" xml:space="preserve">
<style type="text/css">
	.st0{stroke:#000000;stroke-width:2.2587;stroke-linecap:round;stroke-linejoin:round;stroke-miterlimit:10;}
	.st1{clip-path:url(#SVGID_2_);}
	.st2{clip-path:url(#SVGID_4_);}
</style>
<g id="圖層_1">
	<g>
		<path d="M65.7,113.5c-13.5,0-26.4-5.7-35.6-15.6c-0.4-0.5-0.4-1.2,0.1-1.6c0.5-0.4,1.2-0.4,1.6,0.1c8.7,9.4,21.1,14.9,33.9,14.9
			c25.5,0,46.2-20.7,46.2-46.2S91.2,18.8,65.7,18.8c-13.4,0-26.1,5.8-34.8,15.9c-0.4,0.5-1.1,0.5-1.6,0.1c-0.5-0.4-0.5-1.1-0.1-1.6
			c9.2-10.6,22.5-16.6,36.5-16.6c26.7,0,48.5,21.7,48.5,48.5S92.4,113.5,65.7,113.5z"/>
		<g>
			<g>
				<path d="M20.7,83.7c-0.6,0-1.1-0.5-1.1-1.1V48c0-3.3,2.7-6,6-6H48c0.6,0,1.1,0.5,1.1,1.1c0,0.6-0.5,1.1-1.1,1.1H25.6
					c-2.1,0-3.7,1.7-3.7,3.7v34.6C21.8,83.2,21.3,83.7,20.7,83.7z"/>
				<path d="M48,81.1c-0.6,0-1.1-0.5-1.1-1.1s0.5-1.1,1.1-1.1c2.1,0,3.7-1.7,3.7-3.7v-3.7c0-0.6,0.5-1.1,1.1-1.1s1.1,0.5,1.1,1.1
					v3.7C54,78.4,51.3,81.1,48,81.1z"/>
			</g>
			<path d="M48,89.4H24.2c-2.6,0-4.6-2.3-4.6-5.3c0-2.9,2.1-5.3,4.6-5.3H48c0.6,0,1.1,0.5,1.1,1.1s-0.5,1.1-1.1,1.1H24.2
				c-1.1,0-2.4,1.3-2.4,3c0,1.7,1.1,3,2.4,3H48c2.1,0,3.7-1.7,3.7-3.7c0-0.6,0.5-1.1,1.1-1.1s1.1,0.5,1.1,1.1
				C54,86.7,51.3,89.4,48,89.4z"/>
			<path d="M28.7,69.6c-0.6,0-1.1-0.5-1.1-1.1V50.4c0-0.6,0.5-1.1,1.1-1.1s1.1,0.5,1.1,1.1v18.1C29.9,69.1,29.4,69.6,28.7,69.6z"/>
		</g>
		<g>
			<g>
				<path d="M91.5,46H53c-0.6,0-1.1-0.5-1.1-1.1s0.5-1.1,1.1-1.1h38.6c0.6,0,1.1,0.5,1.1,1.1S92.2,46,91.5,46z"/>
				<path d="M61.5,60.8H44.4c-0.4,0-0.8-0.2-1-0.6c-0.2-0.3-0.2-0.8,0-1.1L52,44.3c0.4-0.7,1.6-0.7,2,0l8.6,14.8
					c0.2,0.3,0.2,0.8,0,1.1C62.3,60.6,61.9,60.8,61.5,60.8z M46.4,58.5h13.2L53,47.1L46.4,58.5z"/>
				<path d="M100.1,60.8H83c-0.4,0-0.8-0.2-1-0.6c-0.2-0.3-0.2-0.8,0-1.1l8.6-14.8c0.4-0.7,1.6-0.7,2,0l8.6,14.8
					c0.2,0.3,0.2,0.8,0,1.1C100.9,60.6,100.5,60.8,100.1,60.8z M84.9,58.5h13.2l-6.6-11.4L84.9,58.5z"/>
				<path d="M53,67.5c-5.3,0-9.7-3.5-9.7-7.8c0-0.6,0.5-1.1,1.1-1.1s1.1,0.5,1.1,1.1c0,3.1,3.3,5.6,7.4,5.6s7.4-2.5,7.4-5.6
					c0-0.6,0.5-1.1,1.1-1.1c0.6,0,1.1,0.5,1.1,1.1C62.7,64,58.3,67.5,53,67.5z"/>
				<path d="M91.5,67.5c-5.3,0-9.7-3.5-9.7-7.8c0-0.6,0.5-1.1,1.1-1.1s1.1,0.5,1.1,1.1c0,3.1,3.3,5.6,7.4,5.6s7.4-2.5,7.4-5.6
					c0-0.6,0.5-1.1,1.1-1.1s1.1,0.5,1.1,1.1C101.2,64,96.9,67.5,91.5,67.5z"/>
			</g>
			<path d="M72.2,84.8c-0.6,0-1.1-0.5-1.1-1.1V42.5c0-0.6,0.5-1.1,1.1-1.1s1.1,0.5,1.1,1.1v41.2C73.4,84.3,72.9,84.8,72.2,84.8z"/>
			<path d="M79,84.8H65.5c-0.6,0-1.1-0.5-1.1-1.1s0.5-1.1,1.1-1.1H79c0.6,0,1.1,0.5,1.1,1.1S79.6,84.8,79,84.8z"/>
			<path d="M82.4,90.5H62.1c-0.6,0-1.1-0.5-1.1-1.1s0.5-1.1,1.1-1.1h20.3c0.6,0,1.1,0.5,1.1,1.1S83,90.5,82.4,90.5z"/>
		</g>
	</g>
</g>
<g id="分離模式">
</g>
<g id="圖層_7">
</g>
</svg>
