<?xml version="1.0" encoding="utf-8"?>
<!-- Generator: Adobe Illustrator 23.1.0, SVG Export Plug-In . SVG Version: 6.00 Build 0)  -->
<svg version="1.1" xmlns="http://www.w3.org/2000/svg" xmlns:xlink="http://www.w3.org/1999/xlink" x="0px" y="0px"
	 viewBox="0 0 130 130" style="enable-background:new 0 0 130 130;" xml:space="preserve">
<style type="text/css">
	.st0{stroke:#000000;stroke-width:2.2587;stroke-linecap:round;stroke-linejoin:round;stroke-miterlimit:10;}
	.st1{clip-path:url(#SVGID_2_);}
	.st2{clip-path:url(#SVGID_4_);}
</style>
<g id="圖層_1">
	<g>
		<g>
			<path d="M65,113.5c-10.3,0-20.1-3.2-28.4-9.2c-0.5-0.4-0.6-1.1-0.3-1.6c0.4-0.5,1.1-0.6,1.6-0.3c7.9,5.7,17.3,8.7,27,8.7
				c25.5,0,46.2-20.7,46.2-46.2S90.5,18.8,65,18.8S18.8,39.5,18.8,65c0,7,1.5,13.7,4.5,19.9c0.3,0.6,0,1.2-0.5,1.5
				c-0.6,0.3-1.2,0-1.5-0.5c-3.1-6.6-4.7-13.6-4.7-20.9c0-26.7,21.7-48.5,48.5-48.5c26.7,0,48.5,21.7,48.5,48.5S91.7,113.5,65,113.5
				z"/>
			<g>
				<path d="M67.6,74.6c-0.6,0-1.1-0.5-1.1-1.1v-4.3c0-4.4-3.5-7.9-7.9-7.9c-4.4,0-7.9,3.5-7.9,7.9v2.5c0,0.6-0.5,1.1-1.1,1.1
					s-1.1-0.5-1.1-1.1v-2.5C48.4,63.6,53,59,58.6,59c5.6,0,10.2,4.6,10.2,10.2v4.3C68.8,74.1,68.3,74.6,67.6,74.6z"/>
				<path d="M58.6,61.2c-4.6,0-8.3-3.7-8.3-8.3s3.7-8.3,8.3-8.3s8.3,3.7,8.3,8.3S63.2,61.2,58.6,61.2z M58.6,46.8c-3.3,0-6,2.7-6,6
					c0,3.3,2.7,6,6,6c3.3,0,6-2.7,6-6C64.7,49.6,61.9,46.8,58.6,46.8z"/>
			</g>
			<g>
				<path d="M92.2,77.8c-0.6,0-1.1-0.5-1.1-1.1v-7.5c0-4.4-3.5-7.9-7.9-7.9c-4.4,0-7.9,3.5-7.9,7.9v5.9c0,0.6-0.5,1.1-1.1,1.1
					s-1.1-0.5-1.1-1.1v-5.9c0-5.6,4.6-10.2,10.2-10.2c5.6,0,10.2,4.6,10.2,10.2v7.5C93.3,77.3,92.8,77.8,92.2,77.8z"/>
				<path d="M83.1,61.2c-4.6,0-8.3-3.7-8.3-8.3s3.7-8.3,8.3-8.3c4.6,0,8.3,3.7,8.3,8.3S87.7,61.2,83.1,61.2z M83.1,46.8
					c-3.3,0-6,2.7-6,6c0,3.3,2.7,6,6,6c3.3,0,6-2.7,6-6C89.2,49.6,86.5,46.8,83.1,46.8z"/>
			</g>
			<g>
				<path d="M40.8,96.5c-0.6,0-1.1-0.5-1.1-1.1V74.1H18.4c-0.6,0-1.1-0.5-1.1-1.1c0-0.6,0.5-1.1,1.1-1.1h22.4c0.6,0,1.1,0.5,1.1,1.1
					v22.4C41.9,96,41.4,96.5,40.8,96.5z"/>
				<path d="M64,100.2c-0.1,0-0.2,0-0.3,0c-5-0.5-22.5-8.2-23.3-8.5c-0.6-0.3-0.8-0.9-0.6-1.5c0.3-0.6,0.9-0.8,1.5-0.6
					c6.2,2.7,18.9,8,22.7,8.3c4.1,0.6,36.8-13.6,38.6-15.8c0.5-0.9,0.5-1.7-1.1-3.5c-0.8-0.8-2.5-1.2-4.9-1.1l-18.5,6.6
					c-0.6,0.2-1.2-0.1-1.4-0.7c-0.2-0.6,0.1-1.2,0.7-1.4l18.7-6.7c0.1,0,0.2-0.1,0.3-0.1c3.3-0.2,5.6,0.4,6.9,1.8
					c1.4,1.6,2.9,3.7,1.4,6.2C102.6,86.4,69.4,100.2,64,100.2z"/>
				<path d="M76.1,84.7c-2.6,0-11.2-1.6-16.4-2.7c-0.6-0.1-1-0.7-0.9-1.3c0.1-0.6,0.7-1,1.3-0.9c7.1,1.4,15,2.8,16.1,2.6
					c0.5-0.1,1.2-0.8,1.6-1.7c0.5-1,0.6-2,0.2-2.7c-1.2-1.6-16.3-5.1-23.7-5.1c0,0-0.1,0-0.1,0c-5.4,0-13,3-13.1,3.1
					c-0.6,0.2-1.2,0-1.5-0.6c-0.2-0.6,0-1.2,0.6-1.5c0.3-0.1,8-3.2,13.9-3.2c0,0,0,0,0.1,0c6.1,0,24.3,3.2,25.8,6.4
					c0.6,1.3,0.5,3-0.3,4.6c-0.7,1.5-1.9,2.6-3.1,2.9C76.6,84.7,76.4,84.7,76.1,84.7z"/>
			</g>
			<path d="M73.5,34.8c-1,0-2,0.5-2.6,1.2c-0.6-0.8-1.6-1.2-2.6-1.2c-1.8,0-3.2,1.4-3.2,3.2c0,1.3,1.1,3.2,2.5,4.5
				c1.5,1.5,3.4,2.4,3.4,2.4s1.8-0.9,3.4-2.4c1.4-1.3,2.5-3.2,2.5-4.5C76.7,36.2,75.3,34.8,73.5,34.8z"/>
			<path d="M40.5,43.4c-1,0-2,0.5-2.6,1.2c-0.6-0.8-1.6-1.2-2.6-1.2c-1.8,0-3.2,1.4-3.2,3.2c0,1.3,1.1,3.2,2.5,4.5
				c1.5,1.5,3.4,2.4,3.4,2.4s1.8-0.9,3.4-2.4c1.4-1.3,2.5-3.2,2.5-4.5C43.7,44.9,42.3,43.4,40.5,43.4z"/>
		</g>
	</g>
</g>
<g id="分離模式">
</g>
<g id="圖層_7">
</g>
</svg>
