<?xml version="1.0" encoding="utf-8"?>
<!-- Generator: Adobe Illustrator 23.1.0, SVG Export Plug-In . SVG Version: 6.00 Build 0)  -->
<svg version="1.1" xmlns="http://www.w3.org/2000/svg" xmlns:xlink="http://www.w3.org/1999/xlink" x="0px" y="0px"
	 viewBox="0 0 130 130" style="enable-background:new 0 0 130 130;" xml:space="preserve">
<style type="text/css">
	.st0{stroke:#000000;stroke-width:2.2587;stroke-linecap:round;stroke-linejoin:round;stroke-miterlimit:10;}
	.st1{clip-path:url(#SVGID_2_);}
	.st2{clip-path:url(#SVGID_4_);}
</style>
<g id="圖層_1">
	<g>
		<path d="M48.9,110.4c-0.1,0-0.3,0-0.4-0.1c-9.1-3.5-16.9-9.5-22.5-17.5c-0.4-0.5-0.2-1.2,0.3-1.6c0.5-0.4,1.2-0.2,1.6,0.3
			c5.4,7.6,12.8,13.4,21.4,16.7c0.6,0.2,0.9,0.9,0.7,1.5C49.8,110.1,49.3,110.4,48.9,110.4z"/>
		<path d="M106.4,90.2c-0.2,0-0.4-0.1-0.6-0.2c-0.5-0.3-0.7-1-0.4-1.5c3.8-6.5,6-13.9,6.4-21.4c0-0.6,0.6-1,1.2-1.1
			c0.6,0,1.1,0.6,1.1,1.2c-0.3,7.9-2.6,15.7-6.7,22.5C107.2,90,106.8,90.2,106.4,90.2z"/>
		<path d="M31.6,33.3c-0.3,0-0.6-0.1-0.8-0.3c-0.4-0.4-0.5-1.1,0-1.6c9.2-9.6,21.6-14.8,34.9-14.8c7.7,0,15.4,1.9,22.2,5.4
			c0.6,0.3,0.8,1,0.5,1.5c-0.3,0.6-1,0.8-1.5,0.5c-6.6-3.4-13.7-5.1-21.2-5.1c-12.7,0-24.5,5-33.3,14.1
			C32.2,33.2,31.9,33.3,31.6,33.3z"/>
		<path d="M18.5,62.7C18.4,62.7,18.4,62.7,18.5,62.7c-0.7,0-1.2-0.6-1.1-1.2c0.5-7.7,3-15.2,7-21.8c0.3-0.5,1-0.7,1.6-0.4
			c0.5,0.3,0.7,1,0.4,1.6c-3.8,6.3-6.1,13.4-6.7,20.7C19.6,62.2,19.1,62.7,18.5,62.7z"/>
		<g>
			<g>
				<g>
					<path d="M106.6,33.2C106.6,33.2,106.5,33.2,106.6,33.2c-0.7,0-1.2-0.6-1.1-1.2l0-0.4H88.2l0,0.5c0,0.6-0.6,1-1.2,1.1
						c-0.6,0-1.1-0.6-1.1-1.2l0.1-1.6c0-0.6,0.5-1.1,1.1-1.1h19.6c0.3,0,0.6,0.1,0.8,0.3c0.2,0.2,0.3,0.5,0.3,0.8l-0.1,1.6
						C107.7,32.7,107.2,33.2,106.6,33.2z"/>
					<path d="M125.6,57.8c-0.6,0-1.1-0.5-1.1-1.1V38.8h-9.7c-0.6,0-1.1-0.5-1.1-1.1s0.5-1.1,1.1-1.1h10.8c0.6,0,1.1,0.5,1.1,1.1
						v19.1C126.7,57.3,126.2,57.8,125.6,57.8z"/>
					<path d="M68,57.8c-0.6,0-1.1-0.5-1.1-1.1V37.6c0-0.6,0.5-1.1,1.1-1.1h10.8c0.6,0,1.1,0.5,1.1,1.1s-0.5,1.1-1.1,1.1h-9.6v17.9
						C69.1,57.3,68.6,57.8,68,57.8z"/>
					<path d="M108.9,53.4h-2.3v-9.5H87v9.5h-2.3V42.7c0-0.6,0.5-1.1,1.1-1.1h21.9c0.6,0,1.1,0.5,1.1,1.1V53.4z"/>
					<path d="M114.8,54.5h-36c-0.6,0-1.1-0.5-1.1-1.1V32c0-0.6,0.5-1.1,1.1-1.1h10c0.6,0,1.1,0.5,1.1,1.1v10.7
						c0,0.6-0.5,1.1-1.1,1.1s-1.1-0.5-1.1-1.1v-9.5h-7.8v19.1h33.7V33.2h-7.8v9.6c0,0.6-0.5,1.1-1.1,1.1s-1.1-0.5-1.1-1.1V32
						c0-0.6,0.5-1.1,1.1-1.1h10c0.6,0,1.1,0.5,1.1,1.1v21.2c0,0,0,0.1,0,0.1C115.9,54,115.4,54.5,114.8,54.5z"/>
					<g>
						<path d="M120.2,57.8H73.6c-0.6,0-1.1-0.5-1.1-1.1c0-0.6,0.5-1.1,1.1-1.1h46.6c0.6,0,1.1,0.5,1.1,1.1
							C121.3,57.3,120.8,57.8,120.2,57.8z"/>
						<path d="M127.9,61.6h-62c-0.6,0-1.1-0.5-1.1-1.1s0.5-1.1,1.1-1.1h62c0.6,0,1.1,0.5,1.1,1.1S128.5,61.6,127.9,61.6z"/>
					</g>
					<g>
						<path d="M96.8,30.1c-0.6,0-1.1-0.5-1.1-1.1v-4.8c0-0.6,0.5-1.1,1.1-1.1s1.1,0.5,1.1,1.1V29C97.9,29.6,97.4,30.1,96.8,30.1z"/>
						<g>
							<path d="M97.1,26.8c-0.6,0-1.1-0.5-1.1-1.1c0-0.3,0.1-0.5,0.2-0.7c-0.2-0.2-0.2-0.4-0.2-0.7c0-0.6,0.5-1.1,1.1-1.1h0.6
								l1.2-0.1c0.6,0,1.1,0.5,1.1,1.1v1.4c0,0.6-0.5,1.1-1.1,1.1h-0.4l-0.6,0.1L97.1,26.8z"/>
						</g>
					</g>
				</g>
				<g>
					<g>
						<path d="M93,54.5c-0.6,0-1.1-0.5-1.1-1.1v-5c0-0.6,0.5-1.1,1.1-1.1s1.1,0.5,1.1,1.1v5C94.2,54,93.7,54.5,93,54.5z"/>
					</g>
				</g>
				<g>
					<path d="M100.5,36.2H93c-0.6,0-1.1-0.5-1.1-1.1S92.4,34,93,34h7.5c0.6,0,1.1,0.5,1.1,1.1S101.1,36.2,100.5,36.2z"/>
				</g>
				<g>
					<g>
						<path d="M121.6,42.8h-2.9c-0.6,0-1.1-0.5-1.1-1.1s0.5-1.1,1.1-1.1h2.9c0.6,0,1.1,0.5,1.1,1.1S122.3,42.8,121.6,42.8z"/>
					</g>
					<g>
						<path d="M75.1,42.8h-2.9c-0.6,0-1.1-0.5-1.1-1.1s0.5-1.1,1.1-1.1h2.9c0.6,0,1.1,0.5,1.1,1.1S75.7,42.8,75.1,42.8z"/>
					</g>
				</g>
			</g>
			<g>
				<path d="M98.9,103.2H86.4c-0.6,0-1.1-0.5-1.1-1.1v-5.1c0-0.5,0.3-0.9,0.7-1l2.2-0.9v-4.7c0-0.5,0.3-0.9,0.7-1.1l3.3-1.2
					c0.3-0.1,0.5-0.1,0.8,0l3.3,1.2c0.4,0.2,0.7,0.6,0.7,1.1v4.7l2.2,0.9c0.4,0.2,0.7,0.6,0.7,1v5.1
					C100.1,102.6,99.6,103.2,98.9,103.2z M87.5,100.9h10.3v-3.2l-2.2-0.9c-0.4-0.2-0.7-0.6-0.7-1V91l-2.2-0.8L90.5,91v4.7
					c0,0.5-0.3,0.9-0.7,1l-2.2,0.9V100.9z"/>
				<g>
					<path d="M82,113.4H57.2c-0.6,0-1.1-0.5-1.1-1.1V95.7c0-0.6,0.5-1.1,1.1-1.1h29.1c0.6,0,1.1,0.5,1.1,1.1v6.3
						c0,0.6-0.5,1.1-1.1,1.1s-1.1-0.5-1.1-1.1v-5.2H58.4v14.3H82c0.6,0,1.1,0.5,1.1,1.1S82.6,113.4,82,113.4z"/>
					<path d="M128.1,113.4h-24.8c-0.6,0-1.1-0.5-1.1-1.1s0.5-1.1,1.1-1.1h23.6V96.8h-26.8v5.2c0,0.6-0.5,1.1-1.1,1.1
						s-1.1-0.5-1.1-1.1v-6.3c0-0.6,0.5-1.1,1.1-1.1h29.1c0.6,0,1.1,0.5,1.1,1.1v16.5C129.2,112.9,128.7,113.4,128.1,113.4z"/>
				</g>
				<g>
					<path d="M103.3,113.4H82c-0.6,0-1.1-0.5-1.1-1.1V102c0-0.6,0.5-1.1,1.1-1.1h21.3c0.6,0,1.1,0.5,1.1,1.1v10.2
						C104.4,112.9,103.9,113.4,103.3,113.4z M83.1,111.1h19.1v-8H83.1V111.1z"/>
					<path d="M86.4,113c-0.6,0-1.1-0.5-1.1-1.1v-4.1c0-1.7,1.5-3.1,3.4-3.1c0.6,0,1.1,0.5,1.1,1.1s-0.5,1.1-1.1,1.1
						c-0.6,0-1.2,0.4-1.2,0.9v4.1C87.5,112.5,87,113,86.4,113z"/>
				</g>
				<g>
					<path d="M92.7,89.8c-0.6,0-1.1-0.5-1.1-1.1v-4.8c0-0.6,0.5-1.1,1.1-1.1s1.1,0.5,1.1,1.1v4.8C93.8,89.3,93.3,89.8,92.7,89.8z"/>
					<g>
						<path d="M92.9,86.5c-0.6,0-1.1-0.5-1.1-1.1c0-0.3,0.1-0.5,0.2-0.7c-0.2-0.2-0.2-0.4-0.2-0.7c0-0.6,0.5-1.1,1.1-1.1h0.6
							l1.2-0.1c0.6,0,1.1,0.5,1.1,1.1v1.4c0,0.6-0.5,1.1-1.1,1.1h-0.4l-0.6,0.1L92.9,86.5z"/>
					</g>
				</g>
				<g>
					<g>
						<path d="M108.3,106.8c-0.6,0-1.1-0.5-1.1-1.1V100c0-0.6,0.5-1.1,1.1-1.1s1.1,0.5,1.1,1.1v5.7
							C109.4,106.3,108.9,106.8,108.3,106.8z"/>
						<path d="M115.4,106.8c-0.6,0-1.1-0.5-1.1-1.1V100c0-0.6,0.5-1.1,1.1-1.1s1.1,0.5,1.1,1.1v5.7
							C116.5,106.3,116,106.8,115.4,106.8z"/>
						<path d="M122.5,106.8c-0.6,0-1.1-0.5-1.1-1.1V100c0-0.6,0.5-1.1,1.1-1.1c0.6,0,1.1,0.5,1.1,1.1v5.7
							C123.6,106.3,123.1,106.8,122.5,106.8z"/>
					</g>
					<g>
						<path d="M62.9,106.8c-0.6,0-1.1-0.5-1.1-1.1V100c0-0.6,0.5-1.1,1.1-1.1c0.6,0,1.1,0.5,1.1,1.1v5.7
							C64,106.3,63.5,106.8,62.9,106.8z"/>
						<path d="M69.9,106.8c-0.6,0-1.1-0.5-1.1-1.1V100c0-0.6,0.5-1.1,1.1-1.1s1.1,0.5,1.1,1.1v5.7C71.1,106.3,70.5,106.8,69.9,106.8
							z"/>
						<path d="M77,106.8c-0.6,0-1.1-0.5-1.1-1.1V100c0-0.6,0.5-1.1,1.1-1.1s1.1,0.5,1.1,1.1v5.7C78.1,106.3,77.6,106.8,77,106.8z"/>
					</g>
				</g>
				<path d="M128.6,117.6H56.7c-0.6,0-1.1-0.5-1.1-1.1s0.5-1.1,1.1-1.1h71.9c0.6,0,1.1,0.5,1.1,1.1S129.2,117.6,128.6,117.6z"/>
			</g>
			<g>
				<g>
					<path d="M73.5,83H1.4c-0.6,0-1.1-0.5-1.1-1.1V67.1c0-0.6,0.5-1.1,1.1-1.1h24.6c0.6,0,1.1,0.5,1.1,1.1s-0.5,1.1-1.1,1.1H2.5
						v12.5h69.8V68.2H49.3c-0.6,0-1.1-0.5-1.1-1.1s0.5-1.1,1.1-1.1h24.2c0.6,0,1.1,0.5,1.1,1.1v14.7C74.7,82.5,74.1,83,73.5,83z"/>
					<g>
						<path d="M45.1,83H29.8c-0.6,0-1.1-0.5-1.1-1.1v-8.4c0-0.6,0.5-1.1,1.1-1.1h15.3c0.6,0,1.1,0.5,1.1,1.1v8.4
							C46.3,82.5,45.8,83,45.1,83z M30.9,80.7H44v-6.1H30.9V80.7z"/>
						<g>
							<path d="M26.1,83c-0.6,0-1.1-0.5-1.1-1.1V60.6c0-0.6,0.5-1.1,1.1-1.1h6.1c0.6,0,1.1,0.5,1.1,1.1v12.9c0,0.6-0.5,1.1-1.1,1.1
								S31,74.1,31,73.4V61.7h-3.8v20.1C27.2,82.5,26.7,83,26.1,83z"/>
							<path d="M48.9,83c-0.6,0-1.1-0.5-1.1-1.1V61.7h-3.8v11.7c0,0.6-0.5,1.1-1.1,1.1s-1.1-0.5-1.1-1.1V60.6c0-0.6,0.5-1.1,1.1-1.1
								h6.1c0.6,0,1.1,0.5,1.1,1.1v21.3C50,82.5,49.5,83,48.9,83z"/>
							<path d="M42.8,62.7H32.1c-0.6,0-1.1-0.5-1.1-1.1c0-0.6,0.5-1.1,1.1-1.1h10.7c0.6,0,1.1,0.5,1.1,1.1
								C43.9,62.2,43.4,62.7,42.8,62.7z"/>
						</g>
						<path d="M38.2,68.2h-6c-0.6,0-1.1-0.5-1.1-1.1s0.5-1.1,1.1-1.1h6c0.6,0,1.1,0.5,1.1,1.1S38.8,68.2,38.2,68.2z"/>
						<path d="M33.1,82.5c-0.6,0-1.1-0.5-1.1-1.1v-4c0-0.6,0.5-1.1,1.1-1.1c0.6,0,1.1,0.5,1.1,1.1v4C34.2,82,33.7,82.5,33.1,82.5z"
							/>
					</g>
					<g>
						<g>
							<path d="M11.6,74.1H6.8c-0.6,0-1.1-0.5-1.1-1.1s0.5-1.1,1.1-1.1h4.8c0.6,0,1.1,0.5,1.1,1.1S12.2,74.1,11.6,74.1z"/>
							<path d="M20.9,74.1h-4.8c-0.6,0-1.1-0.5-1.1-1.1s0.5-1.1,1.1-1.1h4.8c0.6,0,1.1,0.5,1.1,1.1S21.5,74.1,20.9,74.1z"/>
						</g>
						<g>
							<path d="M58.9,74.1h-4.8c-0.6,0-1.1-0.5-1.1-1.1s0.5-1.1,1.1-1.1h4.8c0.6,0,1.1,0.5,1.1,1.1S59.5,74.1,58.9,74.1z"/>
							<path d="M68.1,74.1h-4.8c-0.6,0-1.1-0.5-1.1-1.1s0.5-1.1,1.1-1.1h4.8c0.6,0,1.1,0.5,1.1,1.1S68.7,74.1,68.1,74.1z"/>
						</g>
					</g>
					<g>
						<path d="M37.5,61.9c-0.6,0-1.1-0.5-1.1-1.1v-4.8c0-0.6,0.5-1.1,1.1-1.1c0.6,0,1.1,0.5,1.1,1.1v4.8
							C38.6,61.4,38.1,61.9,37.5,61.9z"/>
						<g>
							<path d="M37.7,58.6c-0.6,0-1.1-0.5-1.1-1.1c0-0.3,0.1-0.5,0.2-0.7c-0.2-0.2-0.2-0.4-0.2-0.7c0-0.6,0.5-1.1,1.1-1.1h0.6
								l1.2-0.1c0.6,0,1.1,0.5,1.1,1.1v1.4c0,0.6-0.5,1.1-1.1,1.1h-0.4l-0.6,0.1L37.7,58.6z"/>
						</g>
					</g>
				</g>
				<path d="M73.5,87.3H1.4c-0.6,0-1.1-0.5-1.1-1.1s0.5-1.1,1.1-1.1h72.1c0.6,0,1.1,0.5,1.1,1.1S74.1,87.3,73.5,87.3z"/>
			</g>
			<path d="M83.7,40.2c-0.6,0-1.1-0.5-1.1-1.1v-2.9c0-0.6,0.5-1.1,1.1-1.1s1.1,0.5,1.1,1.1v2.9C84.9,39.7,84.4,40.2,83.7,40.2z"/>
			<path d="M109.7,40.2c-0.6,0-1.1-0.5-1.1-1.1v-2.9c0-0.6,0.5-1.1,1.1-1.1s1.1,0.5,1.1,1.1v2.9C110.8,39.7,110.3,40.2,109.7,40.2z"
				/>
		</g>
		<path d="M28.4,41.5c-3.2,0-5.8-2.6-5.8-5.8c0-3.2,2.6-5.8,5.8-5.8s5.8,2.6,5.8,5.8C34.2,38.8,31.6,41.5,28.4,41.5z M28.4,32
			c-2,0-3.6,1.6-3.6,3.6c0,2,1.6,3.6,3.6,3.6s3.6-1.6,3.6-3.6C32,33.6,30.4,32,28.4,32z"/>
	</g>
</g>
<g id="分離模式">
</g>
<g id="圖層_7">
</g>
</svg>
