<?xml version="1.0" encoding="utf-8"?>
<!-- Generator: Adobe Illustrator 23.1.0, SVG Export Plug-In . SVG Version: 6.00 Build 0)  -->
<svg version="1.1" xmlns="http://www.w3.org/2000/svg" xmlns:xlink="http://www.w3.org/1999/xlink" x="0px" y="0px"
	 viewBox="0 0 130 130" style="enable-background:new 0 0 130 130;" xml:space="preserve">
<style type="text/css">
	.st0{stroke:#000000;stroke-width:2.2587;stroke-linecap:round;stroke-linejoin:round;stroke-miterlimit:10;}
	.st1{clip-path:url(#SVGID_2_);}
	.st2{clip-path:url(#SVGID_4_);}
</style>
<g id="圖層_1">
	<g>
		<path d="M66.7,113.5c-18.5,0-35.1-10.3-43.4-26.9c-0.3-0.6-0.1-1.2,0.5-1.5c0.6-0.3,1.2-0.1,1.5,0.5c7.9,15.8,23.7,25.6,41.4,25.6
			c25.5,0,46.2-20.7,46.2-46.2S92.2,18.8,66.7,18.8S20.5,39.5,20.5,65c0,4.9,0.8,9.7,2.2,14.2c0.2,0.6-0.1,1.2-0.7,1.4
			c-0.6,0.2-1.2-0.1-1.4-0.7c-1.6-4.8-2.3-9.8-2.3-14.9c0-26.7,21.7-48.5,48.5-48.5s48.5,21.7,48.5,48.5S93.4,113.5,66.7,113.5z"/>
		<path d="M68.9,26c-0.4-0.4-0.9-0.5-1.4-0.2c-0.8,0.4-18.8,10.3-25.9,17.4c-8.1,8.1-8.5,14.1-8,16.9c-4.8,9-6.4,16.9-6.5,17.3
			c-0.1,0.6,0.3,1.2,0.9,1.3c0.1,0,0.1,0,0.2,0c0.5,0,1-0.4,1.1-0.9c0,0,0,0,0-0.1c0-0.1,0-0.2,0-0.3c0.1-0.6,3.1-15.7,13.7-27.9
			c0.3-0.4,0.9-0.4,1.2-0.1c0.4,0.3,0.4,0.9,0.1,1.2c-3.5,4.1-6.2,8.5-8.1,12.6c1.6,0.8,3.5,1.3,5.5,1.5c0.2,0,0.5,0,0.7,0
			c2.3,0,4.4-0.6,6.3-1.5l-1.1-0.4c-0.8-0.3-1.2-1-1.2-1.8c0-0.8,0.6-1.5,1.4-1.7l7.6-1.8c1.8-2.3,3.2-4.7,4.1-6.6
			c0.2-0.5,0.4-1,0.6-1.5l-1.1,0c0,0,0,0,0,0c-0.6,0-1.2-0.4-1.3-1c-0.2-0.6,0-1.3,0.5-1.6l3.6-2.6c0.3-1,0.5-2,0.7-2.9
			c0.3-1.2,0.6-2.3,0.9-3.4c0.9-3.5,4.4-8.9,5.5-10.5C69.3,27,69.3,26.4,68.9,26z"/>
		<g>
			<defs>
				<path id="SVGID_3_" d="M66.7,17.7c-26.1,0-47.3,21.2-47.3,47.3c0,5.1,0.8,10,2.3,14.6l2.7,6.5c7.8,15.6,23.8,26.2,42.4,26.2
					c26.1,0,47.3-21.2,47.3-47.3S92.8,17.7,66.7,17.7z M82.8,92.9c-0.3,1.9-1.7,3.2-3.2,3.6c-2.1,0.6-16.5,0.8-16.5,0.8
					s-14.4-0.2-16.5-0.8c-1.5-0.4-2.9-1.6-3.2-3.6c-0.3-2.3-0.3-9.7-0.3-9.7s0-7.4,0.3-9.7c0.3-1.9,1.7-3.2,3.2-3.6
					c2.1-0.6,16.5-0.8,16.5-0.8s14.4,0.2,16.5,0.8c1.5,0.4,2.9,1.6,3.2,3.6c0.3,2.3,0.3,9.7,0.3,9.7S83.1,90.6,82.8,92.9z"/>
			</defs>
			<clipPath id="SVGID_2_">
				<use xlink:href="#SVGID_3_"  style="overflow:visible;"/>
			</clipPath>
			<g class="st1">
				<path d="M100,83.7c-0.3,0-0.5,0-0.8-0.1h0l-33.6-4.6c-2.3-0.3-3.9-2.4-3.6-4.7l4.2-31.3c0.3-2.3,2.4-3.9,4.7-3.6l25.8,3.5
					c1.1,0.1,2.1,0.7,2.8,1.6c0.7,0.9,1,2,0.8,3.1l-3.7,27.7l1.5,0.2c0.2,0,0.5,0,0.7-0.2c0.2-0.2,0.3-0.4,0.4-0.7l2.5-18.8
					c0.1-0.9,0.6-1.7,1.4-2.3c0.7-0.6,1.7-0.8,2.6-0.7c1.9,0.3,3.2,2,3,3.9c0,0,0,0,0,0l-2.9,21.8c-0.2,1.6-1,2.9-2.3,3.9
					C102.5,83.3,101.3,83.7,100,83.7z M99.5,81.4c1,0.1,1.9-0.1,2.7-0.7c0.8-0.6,1.3-1.4,1.4-2.4l2.9-21.7c0,0,0,0,0,0
					c0.1-0.7-0.4-1.3-1.1-1.4c-0.7-0.1-1.3,0.4-1.4,1.1l-2.5,18.8c-0.2,1.8-1.9,3-3.7,2.8l-1.5-0.2c0,0.9,0.2,1.7,0.7,2.4
					C97.7,80.8,98.5,81.3,99.5,81.4L99.5,81.4L99.5,81.4z M70.4,41.8c-0.9,0-1.8,0.7-1.9,1.7l-4.2,31.3c-0.1,1,0.6,2,1.6,2.1l29,3.9
					c-0.7-1.1-0.9-2.4-0.8-3.8l4-29.6c0.1-0.5-0.1-1-0.4-1.4c-0.3-0.4-0.8-0.7-1.3-0.7l-25.8-3.5C70.6,41.8,70.5,41.8,70.4,41.8z"/>
				<path d="M105.6,55.2c-0.1,0-0.1,0-0.2,0l-6.3-0.9c-0.6-0.1-1-0.7-1-1.3c0.1-0.6,0.6-1.1,1.3-1l6.3,0.9c0.6,0.1,1,0.7,1,1.3
					C106.6,54.8,106.2,55.2,105.6,55.2z"/>
				<path d="M92.4,57.5c-0.1,0-0.2,0-0.3,0l-19.8-2.7c-0.6-0.1-1.2-0.4-1.6-0.9c-0.4-0.5-0.5-1.1-0.5-1.7l0.8-5.7
					c0.1-0.6,0.4-1.2,0.9-1.6s1.1-0.5,1.7-0.5l19.8,2.7c0.6,0.1,1.2,0.4,1.6,0.9c0.4,0.5,0.5,1.1,0.5,1.7l-0.8,5.7
					c-0.1,0.6-0.4,1.2-0.9,1.6C93.4,57.3,92.9,57.5,92.4,57.5z M73.4,46.7l-0.9,5.7l19.9,2.8l0,0c0,0,0.1,0,0.1-0.1l0.8-5.7
					L73.4,46.7z"/>
				<path d="M76,66.7c-0.1,0-0.2,0-0.3,0L70.5,66c-1.1-0.2-1.9-1.2-1.8-2.3l0.7-5.2c0.2-1.1,1.2-1.9,2.3-1.8l5.2,0.7
					c0.5,0.1,1,0.4,1.4,0.8c0.3,0.4,0.5,1,0.4,1.5L78,64.9c-0.1,0.5-0.4,1-0.8,1.4C76.8,66.6,76.4,66.7,76,66.7z M76,64.5L76,64.5
					L76,64.5z M71,63.8l4.9,0.7l0.6-4.8L71.6,59L71,63.8z M76.5,59.5C76.5,59.5,76.5,59.5,76.5,59.5L76.5,59.5z"/>
				<path d="M92.7,63.2c-0.1,0-0.1,0-0.2,0l-11.1-1.5c-0.6-0.1-1-0.7-1-1.3c0.1-0.6,0.6-1.1,1.3-1l11.1,1.5c0.6,0.1,1,0.7,1,1.3
					C93.7,62.8,93.3,63.2,92.7,63.2z"/>
				<path d="M92.1,67.8c-0.1,0-0.1,0-0.2,0l-11.1-1.5c-0.6-0.1-1-0.7-1-1.3c0.1-0.6,0.6-1.1,1.3-1l11.1,1.5c0.6,0.1,1,0.7,1,1.3
					C93.1,67.4,92.6,67.8,92.1,67.8z"/>
				<path d="M91.2,73.9c-0.1,0-0.1,0-0.2,0l-22.2-3c-0.6-0.1-1-0.7-1-1.3c0.1-0.6,0.6-1.1,1.3-1l22.2,3c0.6,0.1,1,0.7,1,1.3
					C92.3,73.5,91.8,73.9,91.2,73.9z"/>
				<path d="M81.3,76.8c-0.1,0-0.1,0-0.2,0L68.3,75c-0.6-0.1-1-0.7-1-1.3c0.1-0.6,0.6-1.1,1.3-1l12.8,1.7c0.6,0.1,1,0.7,1,1.3
					C82.3,76.4,81.8,76.8,81.3,76.8z"/>
			</g>
		</g>
		<g>
			<path d="M63.2,98.4c-1.5,0-14.6-0.3-16.8-0.8c-1.6-0.4-3.7-1.9-4-4.5c-0.3-2.3-0.3-9.5-0.3-9.9s0-7.5,0.3-9.9
				c0.3-2.1,1.9-3.9,4-4.5c2.2-0.6,15.3-0.8,16.8-0.8c1.5,0,14.6,0.3,16.8,0.8c2.1,0.6,3.7,2.4,4,4.5c0.3,2.3,0.3,9.5,0.3,9.9
				c0,0.3,0,7.5-0.3,9.8c-0.3,2.6-2.4,4.1-4,4.5C77.8,98.2,64.7,98.4,63.2,98.4z M63.1,70.3C57.6,70.3,48.4,70.6,47,71
				c-1,0.3-2.2,1.1-2.4,2.6c-0.3,2.2-0.3,9.5-0.3,9.6v0c0,0.1,0,7.4,0.3,9.6c0.2,1.5,1.4,2.4,2.4,2.6c1.4,0.4,10.7,0.7,16.2,0.8
				c5.5-0.1,14.8-0.4,16.2-0.8c1-0.3,2.2-1.1,2.4-2.6c0.3-2.2,0.3-9.5,0.3-9.6c0-0.1,0-7.4-0.3-9.6c-0.2-1.5-1.4-2.4-2.4-2.6
				C77.9,70.6,68.6,70.3,63.1,70.3z"/>
			<path d="M67.6,82L60,77.7c-0.9-0.5-2,0.1-2,1.2v8.8c0,1,1.1,1.7,2,1.2l7.6-4.4C68.5,83.8,68.5,82.6,67.6,82z"/>
		</g>
		<path d="M12.7,83.9c-0.5,0-1-0.1-1.4-0.6c-0.7-0.6-1-1.6-1.3-2.5c-0.2-0.6-0.4-1.1-0.6-1.5c-0.2-0.3-0.3-0.5-1.4,0.1l-3.6,1.9
			C3.9,81.7,3.3,81.5,3,81c-0.3-0.5-0.1-1.2,0.5-1.5L7,77.5c2-1.1,3.4-0.8,4.4,0.6c0.4,0.6,0.6,1.3,0.8,2c0.2,0.5,0.4,1.3,0.6,1.5
			c0,0,0.3-0.1,0.4-0.2l10.5-3.9c0.6-0.2,1.2,0.1,1.5,0.7c0.2,0.6-0.1,1.2-0.7,1.5L14,83.6C13.7,83.7,13.3,83.9,12.7,83.9z"/>
	</g>
</g>
<g id="分離模式">
</g>
<g id="圖層_7">
</g>
</svg>
