<?xml version="1.0" encoding="utf-8"?>
<!-- Generator: Adobe Illustrator 23.1.0, SVG Export Plug-In . SVG Version: 6.00 Build 0)  -->
<svg version="1.1" xmlns="http://www.w3.org/2000/svg" xmlns:xlink="http://www.w3.org/1999/xlink" x="0px" y="0px"
	 viewBox="0 0 130 130" style="enable-background:new 0 0 130 130;" xml:space="preserve">
<style type="text/css">
	.st0{stroke:#000000;stroke-width:2.2587;stroke-linecap:round;stroke-linejoin:round;stroke-miterlimit:10;}
	.st1{clip-path:url(#SVGID_2_);}
	.st2{clip-path:url(#SVGID_4_);}
</style>
<g id="圖層_1">
	<g>
		<g>
			<path d="M67.7,113.5C46.1,113.5,27,99,21.1,78.3c-0.2-0.6,0.2-1.2,0.8-1.4c0.6-0.2,1.2,0.2,1.4,0.8c5.6,19.7,23.9,33.5,44.4,33.5
				c8.1,0,16.1-2.1,23.1-6.2c0.5-0.3,1.2-0.1,1.5,0.4s0.1,1.2-0.4,1.5C84.5,111.2,76.2,113.5,67.7,113.5z"/>
			<path d="M114.9,62.9c-0.6,0-1.1-0.5-1.1-1.1c-0.3-5.1-1.5-10.1-3.5-14.8c-0.2-0.6,0-1.2,0.6-1.5c0.6-0.2,1.2,0,1.5,0.6
				c2.1,4.9,3.3,10.1,3.7,15.5C116,62.3,115.6,62.8,114.9,62.9C114.9,62.9,114.9,62.9,114.9,62.9z"/>
			<path d="M33.7,33.2c-0.3,0-0.6-0.1-0.8-0.3c-0.4-0.4-0.5-1.1,0-1.6c9.2-9.5,21.6-14.7,34.8-14.7c6,0,11.9,1.1,17.4,3.2
				c0.6,0.2,0.9,0.9,0.6,1.5c-0.2,0.6-0.9,0.9-1.5,0.6c-5.3-2-10.9-3.1-16.6-3.1c-12.6,0-24.4,5-33.1,14C34.3,33,34,33.2,33.7,33.2z
				"/>
			<g>
				<g>
					<path d="M94.1,50.6H78.6c-6.8,0-12.3-5.5-12.3-12.3s5.5-12.3,12.3-12.3c5.4,0,14.3,0,15.7,0l5.4-1.2c0.3-0.1,0.7,0,0.9,0.2
						c0.3,0.2,0.4,0.5,0.4,0.9v2.3c3.3,2.3,5.2,6,5.2,10.1C106.4,45,100.8,50.6,94.1,50.6z M78.6,28.2c-5.6,0-10.1,4.5-10.1,10.1
						s4.5,10.1,10.1,10.1h15.4c5.6,0,10.1-4.5,10.1-10.1c0-3.5-1.8-6.7-4.7-8.5c-0.3-0.2-0.5-0.6-0.5-1v-1.5l-4,0.9
						c-0.1,0-0.3,0.1-0.4,0.1C94.1,28.2,78.6,28.2,78.6,28.2z"/>
				</g>
				<g>
					<path d="M17.1,70.1c-0.3,0-0.5-0.1-0.7-0.3C16.2,69.6,16,69.3,16,69v-3c-4.1-2.8-6.6-7.4-6.6-12.5c0-8.4,6.8-15.2,15.2-15.2H44
						c8.4,0,15.2,6.8,15.2,15.2S52.4,68.6,44,68.6c-5.5,0-17.9,0-19.8,0l-6.9,1.5C17.3,70.1,17.2,70.1,17.1,70.1z M24.7,40.5
						c-7.1,0-12.9,5.8-12.9,12.9c0,4.5,2.3,8.6,6,10.9c0.3,0.2,0.5,0.6,0.5,1v2.3l5.4-1.2c0.1-0.1,0.3-0.1,0.4-0.1
						c0.4,0,13.2,0,19.9,0c7.1,0,12.9-5.8,12.9-12.9S51.2,40.5,44,40.5H24.7z"/>
				</g>
				<g>
					<path d="M106.9,100c-0.1,0-0.2,0-0.2,0l-8.9-1.9c-2.3,0-20,0-25.6,0c-10.7,0-19.4-8.7-19.4-19.4c0-10.7,8.7-19.4,19.4-19.4
						h25.1c10.7,0,19.4,8.7,19.4,19.4c0,6.5-3.2,12.5-8.5,16v4.1c0,0.3-0.2,0.7-0.4,0.9C107.4,99.9,107.2,100,106.9,100z M98.4,95.9
						l7.4,1.6v-3.3c0-0.4,0.2-0.8,0.5-1c5-3.1,8-8.5,8-14.5c0-9.4-7.7-17.1-17.1-17.1H72.1c-9.4,0-17.1,7.7-17.1,17.1
						c0,9.4,7.7,17.1,17.1,17.1c8.7,0,25.4,0,25.8,0C98.1,95.8,98.2,95.8,98.4,95.9z"/>
					<g>
						<circle cx="98" cy="78.7" r="3.2"/>
						<circle cx="84.7" cy="78.7" r="3.2"/>
						<circle cx="71.3" cy="78.7" r="3.2"/>
					</g>
				</g>
			</g>
			<g>
				<path d="M29.8,50.2c0-0.6,0.2-1.1,0.5-1.7c0.4-0.6,0.9-1.1,1.6-1.5c0.7-0.4,1.5-0.6,2.5-0.6c0.9,0,1.6,0.2,2.3,0.5
					c0.7,0.3,1.2,0.8,1.5,1.3c0.4,0.6,0.5,1.2,0.5,1.8c0,0.5-0.1,1-0.3,1.3c-0.2,0.4-0.5,0.7-0.7,1c-0.3,0.3-0.8,0.7-1.5,1.4
					c-0.2,0.2-0.4,0.3-0.5,0.5c-0.1,0.1-0.2,0.3-0.3,0.4c-0.1,0.1-0.1,0.2-0.1,0.4c0,0.1-0.1,0.3-0.1,0.6c-0.1,0.6-0.5,0.9-1.1,0.9
					c-0.3,0-0.6-0.1-0.8-0.3C33.1,56,33,55.7,33,55.3c0-0.5,0.1-0.9,0.2-1.3c0.2-0.4,0.4-0.7,0.6-1c0.3-0.3,0.6-0.6,1-1
					c0.4-0.3,0.7-0.6,0.8-0.8c0.2-0.2,0.3-0.4,0.4-0.6c0.1-0.2,0.2-0.4,0.2-0.7c0-0.5-0.2-0.9-0.5-1.2s-0.8-0.5-1.4-0.5
					c-0.7,0-1.1,0.2-1.5,0.5c-0.3,0.3-0.6,0.8-0.8,1.5c-0.2,0.7-0.6,1-1.2,1c-0.3,0-0.6-0.1-0.9-0.4C29.9,50.7,29.8,50.5,29.8,50.2z
					 M34.2,60c-0.4,0-0.7-0.1-1-0.4c-0.3-0.2-0.4-0.6-0.4-1c0-0.4,0.1-0.7,0.4-1c0.3-0.3,0.6-0.4,1-0.4c0.4,0,0.7,0.1,1,0.4
					c0.3,0.3,0.4,0.6,0.4,1c0,0.4-0.1,0.8-0.4,1C34.9,59.9,34.5,60,34.2,60z"/>
			</g>
			<g>
				<path d="M84.8,39.2l-0.3-3.8c0-0.7-0.1-1.3-0.1-1.6c0-0.4,0.1-0.8,0.3-1c0.2-0.2,0.5-0.4,0.9-0.4c0.4,0,0.8,0.2,0.9,0.5
					c0.2,0.3,0.2,0.8,0.2,1.3c0,0.3,0,0.7-0.1,1.1l-0.3,3.9c0,0.5-0.1,0.8-0.2,1.1c-0.1,0.2-0.3,0.4-0.6,0.4c-0.3,0-0.5-0.1-0.6-0.4
					S84.9,39.7,84.8,39.2z M85.7,44.4c-0.3,0-0.6-0.1-0.8-0.3c-0.2-0.2-0.4-0.5-0.4-0.9c0-0.3,0.1-0.6,0.3-0.8
					c0.2-0.2,0.5-0.3,0.8-0.3s0.6,0.1,0.8,0.3c0.2,0.2,0.3,0.5,0.3,0.8c0,0.4-0.1,0.7-0.4,0.9C86.3,44.3,86,44.4,85.7,44.4z"/>
			</g>
		</g>
	</g>
</g>
<g id="分離模式">
</g>
<g id="圖層_7">
</g>
</svg>
