<svg xmlns="http://www.w3.org/2000/svg" viewBox="0 0 130 130"><defs><style>.bbfd70d3-11e7-409a-a3cb-357630d2acf6{fill:#fff;}</style></defs><title>icon</title><g id="a2a252a2-5caa-4057-bbe6-b4084a5db637" data-name="圖層 1"><path class="bbfd70d3-11e7-409a-a3cb-357630d2acf6" d="M65,113.45a48.14,48.14,0,0,1-28.36-9.16A1.13,1.13,0,1,1,38,102.46,46.15,46.15,0,1,0,23.31,84.91a1.13,1.13,0,1,1-2,1A48.46,48.46,0,1,1,65,113.45Z"/><path class="bbfd70d3-11e7-409a-a3cb-357630d2acf6" d="M67.64,74.6a1.14,1.14,0,0,1-1.13-1.13V69.19a7.91,7.91,0,0,0-15.82,0v2.54a1.13,1.13,0,1,1-2.26,0V69.19a10.17,10.17,0,1,1,20.34,0v4.28A1.13,1.13,0,0,1,67.64,74.6Z"/><path class="bbfd70d3-11e7-409a-a3cb-357630d2acf6" d="M58.6,61.2a8.31,8.31,0,1,1,8.31-8.3A8.31,8.31,0,0,1,58.6,61.2Zm0-14.35a6.05,6.05,0,1,0,6.05,6A6,6,0,0,0,58.6,46.85Z"/><path class="bbfd70d3-11e7-409a-a3cb-357630d2acf6" d="M92.16,77.82A1.14,1.14,0,0,1,91,76.69v-7.5a7.91,7.91,0,0,0-15.82,0v5.9a1.13,1.13,0,0,1-2.26,0v-5.9a10.17,10.17,0,0,1,20.34,0v7.5A1.14,1.14,0,0,1,92.16,77.82Z"/><path class="bbfd70d3-11e7-409a-a3cb-357630d2acf6" d="M83.12,61.2a8.31,8.31,0,1,1,8.31-8.3A8.31,8.31,0,0,1,83.12,61.2Zm0-14.35a6.05,6.05,0,1,0,6,6A6.05,6.05,0,0,0,83.12,46.85Z"/><path class="bbfd70d3-11e7-409a-a3cb-357630d2acf6" d="M40.79,96.54a1.14,1.14,0,0,1-1.13-1.13V74.12H18.35a1.13,1.13,0,1,1,0-2.26H40.79A1.12,1.12,0,0,1,41.92,73V95.41A1.13,1.13,0,0,1,40.79,96.54Z"/><path class="bbfd70d3-11e7-409a-a3cb-357630d2acf6" d="M64,100.23a1.51,1.51,0,0,1-.32,0c-5-.45-22.55-8.16-23.29-8.48a1.13,1.13,0,0,1,.91-2.07c6.19,2.72,18.89,8,22.65,8.31,4.15.63,36.75-13.6,38.61-15.8.51-.89.49-1.74-1.14-3.51-.76-.83-2.55-1.22-5-1.12L77.88,84.18a1.13,1.13,0,0,1-.76-2.13l18.7-6.7a1.7,1.7,0,0,1,.31-.06c3.28-.18,5.61.42,6.9,1.83s2.88,3.66,1.4,6.22C102.63,86.44,69.41,100.23,64,100.23Z"/><path class="bbfd70d3-11e7-409a-a3cb-357630d2acf6" d="M76.14,84.67C73.55,84.67,64.92,83,59.69,82a1.13,1.13,0,0,1,.44-2.22c7.06,1.41,15,2.77,16.06,2.64A3.24,3.24,0,0,0,77.8,80.7,3.35,3.35,0,0,0,78,78c-1.23-1.61-16.26-5.11-23.67-5.11h-.09c-5.44,0-13,3-13.06,3.06a1.13,1.13,0,0,1-1.46-.63,1.12,1.12,0,0,1,.62-1.47c.33-.13,8-3.19,13.89-3.22h.07c6.14,0,24.3,3.17,25.76,6.44a5.57,5.57,0,0,1-.25,4.63,5.28,5.28,0,0,1-3.12,3A2.75,2.75,0,0,1,76.14,84.67Z"/><path class="bbfd70d3-11e7-409a-a3cb-357630d2acf6" d="M73.5,34.75A3.49,3.49,0,0,0,70.86,36a3.49,3.49,0,0,0-2.64-1.23A3.19,3.19,0,0,0,65,38c0,1.35,1.13,3.18,2.51,4.5a15.31,15.31,0,0,0,3.35,2.38,15.31,15.31,0,0,0,3.35-2.38c1.38-1.32,2.51-3.15,2.51-4.5A3.19,3.19,0,0,0,73.5,34.75Z"/><path class="bbfd70d3-11e7-409a-a3cb-357630d2acf6" d="M40.47,43.45a3.51,3.51,0,0,0-2.64,1.22,3.51,3.51,0,0,0-2.64-1.22A3.19,3.19,0,0,0,32,46.67c0,1.35,1.13,3.18,2.51,4.5a15.06,15.06,0,0,0,3.35,2.37,15.06,15.06,0,0,0,3.35-2.37c1.38-1.32,2.51-3.15,2.51-4.5A3.19,3.19,0,0,0,40.47,43.45Z"/></g></svg>