<svg xmlns="http://www.w3.org/2000/svg" xmlns:xlink="http://www.w3.org/1999/xlink" viewBox="0 0 130 130"><defs><style>.b04b023c-abe4-4703-a9d4-45cde882572e{fill:none;}.f5db50ed-35ea-4f44-81e6-e18803169fe2{fill:#fff;}.a68ac972-1097-472e-bfc8-3326dfb31c15{clip-path:url(#bd783f53-2ef5-4da9-a3a3-d86a0c54bd73);}</style><clipPath id="bd783f53-2ef5-4da9-a3a3-d86a0c54bd73"><path class="b04b023c-abe4-4703-a9d4-45cde882572e" d="M66.71,17.68a47.36,47.36,0,0,0-45,61.91l2.65,6.49a47.33,47.33,0,1,0,42.38-68.4Zm16.1,75.23a4.33,4.33,0,0,1-3.18,3.57c-2.08.57-16.49.8-16.49.8s-14.4-.23-16.48-.8a4.32,4.32,0,0,1-3.18-3.57c-.31-2.3-.29-9.71-.29-9.71s0-7.4.29-9.7a4.3,4.3,0,0,1,3.18-3.57c2.08-.57,16.48-.81,16.48-.81s14.41.24,16.49.81a4.32,4.32,0,0,1,3.18,3.57c.3,2.3.29,9.7.29,9.7S83.11,90.61,82.81,92.91Z"/></clipPath></defs><title>icon</title><g id="bc4303a2-64a2-451d-8cf9-b4cead3b2c21" data-name="圖層 1"><path class="f5db50ed-35ea-4f44-81e6-e18803169fe2" d="M66.71,113.45A48.21,48.21,0,0,1,23.32,86.58a1.13,1.13,0,0,1,2-1,46.27,46.27,0,1,0-2.58-6.34,1.13,1.13,0,1,1-2.15.7,48.46,48.46,0,1,1,46.1,33.51Z"/><path class="f5db50ed-35ea-4f44-81e6-e18803169fe2" d="M68.94,26a1.12,1.12,0,0,0-1.37-.22c-.76.41-18.76,10.27-25.89,17.4-8.08,8.08-8.45,14.07-8,16.86A68.55,68.55,0,0,0,27.2,77.38a1.13,1.13,0,0,0,.9,1.32.76.76,0,0,0,.21,0,1.13,1.13,0,0,0,1.11-.92l0-.08a.76.76,0,0,1,0-.3c.12-.64,3.15-15.68,13.69-27.91a.87.87,0,1,1,1.32,1.14,58.83,58.83,0,0,0-8.14,12.61,14.15,14.15,0,0,0,5.52,1.46l.74,0a13.9,13.9,0,0,0,6.28-1.53l-1.06-.38a1.82,1.82,0,0,1,.2-3.49l7.55-1.81a36.61,36.61,0,0,0,4.15-6.63c.24-.49.44-1,.64-1.5l-1.09,0h0a1.42,1.42,0,0,1-.82-2.58L62,44.3c.26-1,.5-2,.73-2.94.28-1.15.56-2.3.86-3.43.94-3.48,4.38-8.86,5.48-10.53A1.13,1.13,0,0,0,68.94,26Z"/><g class="a68ac972-1097-472e-bfc8-3326dfb31c15"><path class="f5db50ed-35ea-4f44-81e6-e18803169fe2" d="M100,83.74a5.39,5.39,0,0,1-.8-.06h0L65.62,79.13a4.18,4.18,0,0,1-3.57-4.69L66.3,43.12A4.17,4.17,0,0,1,71,39.55l25.83,3.51a4.19,4.19,0,0,1,2.76,1.6,4.12,4.12,0,0,1,.8,3.09L96.64,75.4l1.5.21a1.07,1.07,0,0,0,.73-.2,1,1,0,0,0,.38-.65L101.8,56a3.51,3.51,0,0,1,7,.9v0l-3,21.76a5.93,5.93,0,0,1-5.83,5.1Zm-.5-2.29a3.67,3.67,0,0,0,4.09-3.12l2.94-21.72v0a1.25,1.25,0,0,0-1.08-1.4,1.23,1.23,0,0,0-1.4,1.07l-2.55,18.8a3.26,3.26,0,0,1-3.66,2.78l-1.49-.2a3.64,3.64,0,0,0,3.13,3.8Zm-29-39.68a1.91,1.91,0,0,0-1.89,1.66L64.29,74.75a1.9,1.9,0,0,0,1.64,2.14l29,3.93a5.82,5.82,0,0,1-.76-3.77l4-29.61a1.91,1.91,0,0,0-1.64-2.15l-25.82-3.5Z"/><path class="f5db50ed-35ea-4f44-81e6-e18803169fe2" d="M105.6,55.2h-.16l-6.29-.86a1.12,1.12,0,0,1-1-1.27,1.1,1.1,0,0,1,1.27-1l6.29.86a1.13,1.13,0,0,1-.15,2.25Z"/><path class="f5db50ed-35ea-4f44-81e6-e18803169fe2" d="M92.41,57.5l-.31,0L72.29,54.79a2.3,2.3,0,0,1-1.55-.9,2.35,2.35,0,0,1-.46-1.74l.77-5.65a2.33,2.33,0,0,1,2.64-2l19.8,2.68a2.34,2.34,0,0,1,2,2.64l-.77,5.65a2.34,2.34,0,0,1-2.32,2Zm-19-10.77-.86,5.73L92.4,55.24h0a.11.11,0,0,0,.1-.07l.76-5.65Z"/><path class="f5db50ed-35ea-4f44-81e6-e18803169fe2" d="M76,66.73h-.28L70.48,66a2.05,2.05,0,0,1-1.76-2.32l.7-5.19a2.07,2.07,0,0,1,2.32-1.77l5.2.71a2,2,0,0,1,1.36.79,2,2,0,0,1,.4,1.52L78,65a2.07,2.07,0,0,1-.8,1.36A2,2,0,0,1,76,66.73Zm0-2.25Zm-5-.68,4.86.66.6-4.81L71.63,59Zm5.49-4.35h0Z"/><path class="f5db50ed-35ea-4f44-81e6-e18803169fe2" d="M92.7,63.17h-.15l-11.11-1.5a1.13,1.13,0,0,1-1-1.27,1.1,1.1,0,0,1,1.27-1l11.1,1.51a1.12,1.12,0,0,1-.15,2.24Z"/><path class="f5db50ed-35ea-4f44-81e6-e18803169fe2" d="M92.08,67.76h-.15l-11.11-1.5a1.13,1.13,0,0,1-1-1.28,1.09,1.09,0,0,1,1.27-1l11.1,1.51a1.12,1.12,0,0,1-.15,2.24Z"/><path class="f5db50ed-35ea-4f44-81e6-e18803169fe2" d="M91.25,73.92h-.16l-22.21-3a1.13,1.13,0,0,1-1-1.27,1.12,1.12,0,0,1,1.27-1l22.22,3a1.13,1.13,0,0,1-.15,2.25Z"/><path class="f5db50ed-35ea-4f44-81e6-e18803169fe2" d="M81.25,76.77H81.1L68.32,75a1.14,1.14,0,0,1-1-1.27,1.1,1.1,0,0,1,1.27-1L81.4,74.52a1.13,1.13,0,0,1-.15,2.25Z"/></g><path class="f5db50ed-35ea-4f44-81e6-e18803169fe2" d="M63.16,98.41c-1.52,0-14.64-.25-16.8-.84a5.46,5.46,0,0,1-4-4.52c-.31-2.34-.3-9.51-.3-9.85s0-7.51.3-9.85a5.44,5.44,0,0,1,4-4.51c2.16-.59,15.28-.82,16.77-.85s14.64.26,16.8.85a5.44,5.44,0,0,1,4,4.51c.31,2.35.3,9.55.3,9.86s0,7.5-.3,9.84a5.46,5.46,0,0,1-4,4.52C77.77,98.16,64.65,98.39,63.16,98.41Zm0-28.16c-5.48.09-14.75.38-16.17.77a3.21,3.21,0,0,0-2.36,2.63c-.29,2.2-.28,9.48-.28,9.55h0c0,.07,0,7.35.28,9.55A3.21,3.21,0,0,0,47,95.39c1.42.39,10.69.68,16.2.77,5.48-.09,14.75-.38,16.17-.77a3.21,3.21,0,0,0,2.36-2.63c.29-2.2.28-9.48.28-9.55s0-7.36-.28-9.56A3.21,3.21,0,0,0,79.33,71C77.91,70.63,68.64,70.34,63.13,70.25Z"/><path class="f5db50ed-35ea-4f44-81e6-e18803169fe2" d="M67.6,82.05,60,77.67a1.33,1.33,0,0,0-2,1.15v8.76a1.34,1.34,0,0,0,2,1.16l7.58-4.38A1.33,1.33,0,0,0,67.6,82.05Z"/><path class="f5db50ed-35ea-4f44-81e6-e18803169fe2" d="M12.75,83.91a2.07,2.07,0,0,1-1.44-.56,5.51,5.51,0,0,1-1.26-2.52,6.88,6.88,0,0,0-.56-1.47c-.18-.26-.3-.45-1.43.15L4.5,81.42a1.13,1.13,0,0,1-1.07-2L7,77.52c2-1,3.44-.84,4.38.62a7.94,7.94,0,0,1,.83,2,5.12,5.12,0,0,0,.62,1.51,3.65,3.65,0,0,1,.4-.16l10.46-3.87a1.12,1.12,0,1,1,.78,2.11L14,83.64A3.6,3.6,0,0,1,12.75,83.91Z"/></g></svg>