<svg xmlns="http://www.w3.org/2000/svg" viewBox="0 0 130 130"><defs><style>.e73c8b74-a751-4aa2-945c-3d3145a4ad36{fill:#fff;}</style></defs><title>icon</title><g id="f88512bd-edd9-44a9-aab2-a0462dc43857" data-name="圖層 1"><path class="e73c8b74-a751-4aa2-945c-3d3145a4ad36" d="M67.66,113.45A48.64,48.64,0,0,1,21.06,78.3a1.13,1.13,0,1,1,2.17-.62A46.23,46.23,0,0,0,90.75,105a1.13,1.13,0,1,1,1.13,2A48.41,48.41,0,0,1,67.66,113.45Z"/><path class="e73c8b74-a751-4aa2-945c-3d3145a4ad36" d="M114.87,62.85a1.13,1.13,0,0,1-1.13-1.05A45.65,45.65,0,0,0,110.23,47a1.13,1.13,0,1,1,2.08-.88A48.21,48.21,0,0,1,116,61.65a1.13,1.13,0,0,1-1,1.2Z"/><path class="e73c8b74-a751-4aa2-945c-3d3145a4ad36" d="M33.71,33.16a1.11,1.11,0,0,1-.79-.32,1.12,1.12,0,0,1,0-1.59A48.5,48.5,0,0,1,85.06,19.77a1.13,1.13,0,0,1,.65,1.46,1.15,1.15,0,0,1-1.46.65A46.25,46.25,0,0,0,34.52,32.82,1.12,1.12,0,0,1,33.71,33.16Z"/><path class="e73c8b74-a751-4aa2-945c-3d3145a4ad36" d="M94.05,50.55H78.64a12.33,12.33,0,0,1,0-24.65H94.36l5.43-1.17a1.12,1.12,0,0,1,1.37,1.1v2.3a12.17,12.17,0,0,1,5.22,10.08A12.34,12.34,0,0,1,94.05,50.55ZM78.64,28.16a10.07,10.07,0,0,0,0,20.13H94.05a10.08,10.08,0,0,0,10.07-10.07,9.91,9.91,0,0,0-4.69-8.51,1.14,1.14,0,0,1-.53-1V27.24l-4,.86a1,1,0,0,1-.41.06Z"/><path class="e73c8b74-a751-4aa2-945c-3d3145a4ad36" d="M17.14,70.11A1.13,1.13,0,0,1,16,69v-3A15,15,0,0,1,9.46,53.42a15.22,15.22,0,0,1,15.2-15.21H44a15.21,15.21,0,0,1,0,30.41H24.24l-6.86,1.47A1,1,0,0,1,17.14,70.11Zm7.52-29.64a13,13,0,0,0-12.94,13,12.78,12.78,0,0,0,6,11,1.11,1.11,0,0,1,.53,1v2.25l5.41-1.16a.8.8,0,0,1,.43-.07H44a12.95,12.95,0,0,0,0-25.89Z"/><path class="e73c8b74-a751-4aa2-945c-3d3145a4ad36" d="M106.92,100l-.24,0-8.92-1.92H72.12a19.36,19.36,0,1,1,0-38.71H97.19a19.38,19.38,0,0,1,19.35,19.36,19.11,19.11,0,0,1-8.49,16v4.11a1.11,1.11,0,0,1-.42.88A1.08,1.08,0,0,1,106.92,100Zm-8.55-4.12,7.42,1.59V94.15a1.12,1.12,0,0,1,.54-1,16.86,16.86,0,0,0,8-14.46,17.12,17.12,0,0,0-17.09-17.1H72.12a17.1,17.1,0,0,0,0,34.2l25.81,0A1,1,0,0,1,98.37,95.89Z"/><circle class="e73c8b74-a751-4aa2-945c-3d3145a4ad36" cx="97.96" cy="78.73" r="3.25"/><circle class="e73c8b74-a751-4aa2-945c-3d3145a4ad36" cx="84.65" cy="78.73" r="3.25"/><circle class="e73c8b74-a751-4aa2-945c-3d3145a4ad36" cx="71.35" cy="78.73" r="3.25"/><path class="e73c8b74-a751-4aa2-945c-3d3145a4ad36" d="M29.8,50.18a3.2,3.2,0,0,1,.55-1.73A4.21,4.21,0,0,1,32,47a5.08,5.08,0,0,1,2.46-.57,5.25,5.25,0,0,1,2.3.48,3.69,3.69,0,0,1,1.54,1.31A3.15,3.15,0,0,1,38.8,50a2.73,2.73,0,0,1-.31,1.34,3.77,3.77,0,0,1-.74,1c-.28.28-.8.75-1.53,1.41a5.85,5.85,0,0,0-.5.5,1.93,1.93,0,0,0-.27.38,2,2,0,0,0-.14.35l-.15.62a1,1,0,0,1-1.07.94,1.14,1.14,0,0,1-.79-.31,1.21,1.21,0,0,1-.32-.91A3.29,3.29,0,0,1,33.22,54a3.16,3.16,0,0,1,.62-1c.26-.28.61-.61,1-1s.67-.59.84-.76a2.67,2.67,0,0,0,.43-.57,1.35,1.35,0,0,0,.17-.68,1.59,1.59,0,0,0-.53-1.22,2,2,0,0,0-1.38-.49,1.89,1.89,0,0,0-1.46.5,3.88,3.88,0,0,0-.79,1.47q-.31,1-1.17,1a1.14,1.14,0,0,1-.85-.36A1.08,1.08,0,0,1,29.8,50.18Zm4.39,9.87a1.4,1.4,0,0,1-1-.36,1.26,1.26,0,0,1-.41-1,1.28,1.28,0,0,1,.4-1,1.33,1.33,0,0,1,1-.39,1.27,1.27,0,0,1,1,.39,1.3,1.3,0,0,1,.39,1,1.25,1.25,0,0,1-.4,1A1.38,1.38,0,0,1,34.19,60.05Z"/><path class="e73c8b74-a751-4aa2-945c-3d3145a4ad36" d="M84.84,39.25l-.25-3.76c0-.74-.07-1.26-.07-1.58a1.41,1.41,0,0,1,.34-1,1.19,1.19,0,0,1,.9-.36.9.9,0,0,1,.9.46,3.18,3.18,0,0,1,.23,1.35,9.24,9.24,0,0,1-.06,1l-.33,3.87a3.08,3.08,0,0,1-.24,1.06.61.61,0,0,1-.6.37.58.58,0,0,1-.58-.36A3.55,3.55,0,0,1,84.84,39.25Zm.87,5.16a1.23,1.23,0,0,1-.84-.31,1.09,1.09,0,0,1-.35-.86,1.1,1.1,0,0,1,.34-.83,1.18,1.18,0,0,1,1.68,0,1.19,1.19,0,0,1,0,1.69A1.21,1.21,0,0,1,85.71,44.41Z"/></g></svg>