<svg xmlns="http://www.w3.org/2000/svg" viewBox="0 0 130 130"><defs><style>.b6e0ad81-bd10-44eb-b5bb-82228c11cf11{fill:#fff;}</style></defs><title>icon</title><g id="fa8bbcb1-536a-4eaf-9b62-ddcef04f094b" data-name="圖層 1"><path class="b6e0ad81-bd10-44eb-b5bb-82228c11cf11" d="M65.73,113.45a48.61,48.61,0,0,1-35.6-15.58,1.13,1.13,0,0,1,1.66-1.53,46.19,46.19,0,1,0-.91-61.66,1.13,1.13,0,0,1-1.59.11,1.14,1.14,0,0,1-.11-1.6,48.45,48.45,0,1,1,36.55,80.26Z"/><path class="b6e0ad81-bd10-44eb-b5bb-82228c11cf11" d="M20.71,83.69a1.13,1.13,0,0,1-1.12-1.13V48a6,6,0,0,1,6-6H48a1.13,1.13,0,0,1,0,2.26H25.57A3.73,3.73,0,0,0,21.84,48V82.56A1.13,1.13,0,0,1,20.71,83.69Z"/><path class="b6e0ad81-bd10-44eb-b5bb-82228c11cf11" d="M48,81.13a1.13,1.13,0,0,1,0-2.26,3.73,3.73,0,0,0,3.72-3.72V71.5a1.13,1.13,0,0,1,2.26,0v3.65A6,6,0,0,1,48,81.13Z"/><path class="b6e0ad81-bd10-44eb-b5bb-82228c11cf11" d="M48,89.4H24.22c-2.6,0-4.63-2.32-4.63-5.27s2.12-5.26,4.63-5.26H48a1.13,1.13,0,1,1,0,2.26H24.22a2.85,2.85,0,0,0-2.38,3c0,1.66,1.07,3,2.38,3H48a3.73,3.73,0,0,0,3.72-3.73,1.13,1.13,0,0,1,2.26,0A6,6,0,0,1,48,89.4Z"/><path class="b6e0ad81-bd10-44eb-b5bb-82228c11cf11" d="M28.75,69.62a1.13,1.13,0,0,1-1.13-1.13V50.42a1.13,1.13,0,1,1,2.26,0V68.49A1.14,1.14,0,0,1,28.75,69.62Z"/><path class="b6e0ad81-bd10-44eb-b5bb-82228c11cf11" d="M91.53,46H53a1.13,1.13,0,1,1,0-2.26H91.53a1.13,1.13,0,0,1,0,2.26Z"/><path class="b6e0ad81-bd10-44eb-b5bb-82228c11cf11" d="M61.53,60.8H44.41a1.12,1.12,0,0,1-1-.56,1.14,1.14,0,0,1,0-1.13L52,44.28a1.17,1.17,0,0,1,1.95,0l8.57,14.83a1.13,1.13,0,0,1-1,1.69ZM46.36,58.54H59.57L53,47.11Z"/><path class="b6e0ad81-bd10-44eb-b5bb-82228c11cf11" d="M100.09,60.8H83a1.13,1.13,0,0,1-1-1.69l8.56-14.83a1.18,1.18,0,0,1,2,0l8.56,14.83a1.14,1.14,0,0,1,0,1.13A1.12,1.12,0,0,1,100.09,60.8ZM84.93,58.54H98.14L91.53,47.11Z"/><path class="b6e0ad81-bd10-44eb-b5bb-82228c11cf11" d="M53,67.49c-5.35,0-9.69-3.51-9.69-7.82a1.13,1.13,0,1,1,2.26,0c0,3.07,3.33,5.56,7.43,5.56s7.43-2.49,7.43-5.56a1.13,1.13,0,1,1,2.26,0C62.66,64,58.31,67.49,53,67.49Z"/><path class="b6e0ad81-bd10-44eb-b5bb-82228c11cf11" d="M91.53,67.49c-5.34,0-9.69-3.51-9.69-7.82a1.13,1.13,0,1,1,2.26,0c0,3.07,3.34,5.56,7.43,5.56S99,62.74,99,59.67a1.13,1.13,0,1,1,2.26,0C101.22,64,96.88,67.49,91.53,67.49Z"/><path class="b6e0ad81-bd10-44eb-b5bb-82228c11cf11" d="M72.25,84.81a1.14,1.14,0,0,1-1.13-1.13V42.52a1.13,1.13,0,1,1,2.26,0V83.68A1.14,1.14,0,0,1,72.25,84.81Z"/><path class="b6e0ad81-bd10-44eb-b5bb-82228c11cf11" d="M79,84.81H65.5a1.13,1.13,0,0,1,0-2.26H79a1.13,1.13,0,0,1,0,2.26Z"/><path class="b6e0ad81-bd10-44eb-b5bb-82228c11cf11" d="M82.38,90.5H62.12a1.13,1.13,0,0,1,0-2.26H82.38a1.13,1.13,0,1,1,0,2.26Z"/></g></svg>