<svg xmlns="http://www.w3.org/2000/svg" viewBox="0 0 130 130"><defs><style>.ea75b60a-a108-4246-ad54-9cf9f2f37b79{fill:#fff;}</style></defs><title>icon</title><g id="fba06fe3-8a17-4ce7-aaa1-d6ad4e99cd7b" data-name="圖層 1"><path class="ea75b60a-a108-4246-ad54-9cf9f2f37b79" d="M48.89,110.39a1.12,1.12,0,0,1-.4-.07A48.37,48.37,0,0,1,26,92.83a1.13,1.13,0,1,1,1.85-1.3,46.1,46.1,0,0,0,21.44,16.68,1.12,1.12,0,0,1,.65,1.45A1.13,1.13,0,0,1,48.89,110.39Z"/><path class="ea75b60a-a108-4246-ad54-9cf9f2f37b79" d="M106.44,90.17a1.1,1.1,0,0,1-.58-.16,1.14,1.14,0,0,1-.4-1.55A46,46,0,0,0,111.81,67,1.2,1.2,0,0,1,113,66a1.14,1.14,0,0,1,1.08,1.18,48.44,48.44,0,0,1-6.66,22.47A1.13,1.13,0,0,1,106.44,90.17Z"/><path class="ea75b60a-a108-4246-ad54-9cf9f2f37b79" d="M31.59,33.3A1.16,1.16,0,0,1,30.8,33a1.13,1.13,0,0,1,0-1.6,48.08,48.08,0,0,1,34.9-14.83,48.63,48.63,0,0,1,22.19,5.37,1.13,1.13,0,0,1-1,2A46.24,46.24,0,0,0,32.4,33,1.13,1.13,0,0,1,31.59,33.3Z"/><path class="ea75b60a-a108-4246-ad54-9cf9f2f37b79" d="M18.47,62.7h-.08a1.13,1.13,0,0,1-1.05-1.21,48.42,48.42,0,0,1,7-21.76,1.13,1.13,0,0,1,1.92,1.18,46.35,46.35,0,0,0-6.65,20.74A1.12,1.12,0,0,1,18.47,62.7Z"/><path class="ea75b60a-a108-4246-ad54-9cf9f2f37b79" d="M106.58,33.17h0A1.13,1.13,0,0,1,105.45,32l0-.41H88.17l0,.5A1.22,1.22,0,0,1,87,33.17,1.13,1.13,0,0,1,85.89,32L86,30.42a1.14,1.14,0,0,1,1.13-1.09h19.56a1.16,1.16,0,0,1,.82.35,1.15,1.15,0,0,1,.31.83l-.06,1.58A1.14,1.14,0,0,1,106.58,33.17Z"/><path class="ea75b60a-a108-4246-ad54-9cf9f2f37b79" d="M125.59,57.84a1.13,1.13,0,0,1-1.13-1.13v-18h-9.67a1.13,1.13,0,0,1,0-2.26h10.8a1.14,1.14,0,0,1,1.13,1.13V56.71A1.14,1.14,0,0,1,125.59,57.84Z"/><path class="ea75b60a-a108-4246-ad54-9cf9f2f37b79" d="M68,57.84a1.14,1.14,0,0,1-1.13-1.13V37.63A1.14,1.14,0,0,1,68,36.5H78.79a1.13,1.13,0,0,1,0,2.26H69.15v18A1.14,1.14,0,0,1,68,57.84Z"/><path class="ea75b60a-a108-4246-ad54-9cf9f2f37b79" d="M108.86,53.4H106.6V43.88H87V53.4H84.74V42.75a1.12,1.12,0,0,1,1.13-1.13h21.86a1.13,1.13,0,0,1,1.13,1.13Z"/><path class="ea75b60a-a108-4246-ad54-9cf9f2f37b79" d="M114.8,54.53h-36a1.14,1.14,0,0,1-1.14-1.13V32a1.14,1.14,0,0,1,1.13-1.13h10A1.13,1.13,0,0,1,89.94,32V42.72a1.13,1.13,0,0,1-2.26,0V33.17H79.92v19.1h33.74V33.17H105.9v9.58a1.13,1.13,0,0,1-2.26,0V32a1.14,1.14,0,0,1,1.13-1.13h10A1.13,1.13,0,0,1,115.92,32V53.25a.71.71,0,0,1,0,.15A1.13,1.13,0,0,1,114.8,54.53Z"/><path class="ea75b60a-a108-4246-ad54-9cf9f2f37b79" d="M120.19,57.84H73.63a1.13,1.13,0,1,1,0-2.26h46.56a1.13,1.13,0,0,1,0,2.26Z"/><path class="ea75b60a-a108-4246-ad54-9cf9f2f37b79" d="M127.91,61.58h-62a1.13,1.13,0,1,1,0-2.26h62a1.13,1.13,0,0,1,0,2.26Z"/><path class="ea75b60a-a108-4246-ad54-9cf9f2f37b79" d="M96.8,30.1A1.13,1.13,0,0,1,95.67,29V24.15a1.13,1.13,0,1,1,2.26,0V29A1.14,1.14,0,0,1,96.8,30.1Z"/><path class="ea75b60a-a108-4246-ad54-9cf9f2f37b79" d="M97.07,26.82a1.12,1.12,0,0,1-1.13-1.13,1.14,1.14,0,0,1,.24-.7,1.14,1.14,0,0,1-.24-.7,1.12,1.12,0,0,1,1.13-1.13h.55l1.2-.14A1.14,1.14,0,0,1,100,24.15v1.39a1.15,1.15,0,0,1-1.13,1.15h-.44l-.56.11Z"/><path class="ea75b60a-a108-4246-ad54-9cf9f2f37b79" d="M93.05,54.53a1.13,1.13,0,0,1-1.13-1.13v-5a1.13,1.13,0,0,1,2.26,0v5A1.14,1.14,0,0,1,93.05,54.53Z"/><path class="ea75b60a-a108-4246-ad54-9cf9f2f37b79" d="M100.52,36.22H93.05a1.13,1.13,0,0,1,0-2.26h7.47a1.13,1.13,0,1,1,0,2.26Z"/><path class="ea75b60a-a108-4246-ad54-9cf9f2f37b79" d="M121.64,42.75h-2.89a1.13,1.13,0,1,1,0-2.26h2.89a1.13,1.13,0,0,1,0,2.26Z"/><path class="ea75b60a-a108-4246-ad54-9cf9f2f37b79" d="M75.08,42.75h-2.9a1.13,1.13,0,0,1,0-2.26h2.9a1.13,1.13,0,1,1,0,2.26Z"/><path class="ea75b60a-a108-4246-ad54-9cf9f2f37b79" d="M98.93,103.15H86.38A1.13,1.13,0,0,1,85.25,102V96.91a1.13,1.13,0,0,1,.7-1l2.25-.93V90.25a1.13,1.13,0,0,1,.74-1.06L92.27,88A1.13,1.13,0,0,1,93,88l3.33,1.22a1.13,1.13,0,0,1,.74,1.06v4.69l2.25.93a1.13,1.13,0,0,1,.7,1V102A1.13,1.13,0,0,1,98.93,103.15Zm-11.42-2.26H97.8V97.67l-2.25-.93a1.12,1.12,0,0,1-.69-1V91l-2.2-.8-2.2.8V95.7a1.13,1.13,0,0,1-.7,1l-2.25.93Z"/><path class="ea75b60a-a108-4246-ad54-9cf9f2f37b79" d="M82,113.37H57.24a1.14,1.14,0,0,1-1.13-1.13V95.7a1.13,1.13,0,0,1,1.13-1.13h29.1a1.13,1.13,0,0,1,1.13,1.13V102a1.13,1.13,0,0,1-2.26,0V96.83H58.37v14.28H82a1.13,1.13,0,1,1,0,2.26Z"/><path class="ea75b60a-a108-4246-ad54-9cf9f2f37b79" d="M128.07,113.37H103.31a1.13,1.13,0,1,1,0-2.26h23.63V96.83H100.1V102a1.13,1.13,0,1,1-2.25,0V95.7A1.12,1.12,0,0,1,99,94.57h29.1a1.13,1.13,0,0,1,1.13,1.13v16.54A1.14,1.14,0,0,1,128.07,113.37Z"/><path class="ea75b60a-a108-4246-ad54-9cf9f2f37b79" d="M103.31,113.37H82a1.13,1.13,0,0,1-1.13-1.13V102A1.13,1.13,0,0,1,82,100.89h21.31a1.13,1.13,0,0,1,1.13,1.13v10.22A1.13,1.13,0,0,1,103.31,113.37Zm-20.18-2.26h19.05v-8H83.13Z"/><path class="ea75b60a-a108-4246-ad54-9cf9f2f37b79" d="M86.38,113a1.14,1.14,0,0,1-1.13-1.13v-4.12a3.3,3.3,0,0,1,3.45-3.13,1.13,1.13,0,1,1,0,2.25c-.64,0-1.19.4-1.19.88v4.12A1.13,1.13,0,0,1,86.38,113Z"/><path class="ea75b60a-a108-4246-ad54-9cf9f2f37b79" d="M92.66,89.8a1.12,1.12,0,0,1-1.13-1.13V83.86a1.13,1.13,0,1,1,2.25,0v4.81A1.12,1.12,0,0,1,92.66,89.8Z"/><path class="ea75b60a-a108-4246-ad54-9cf9f2f37b79" d="M92.93,86.53A1.13,1.13,0,0,1,92,84.7a1.16,1.16,0,0,1-.24-.7,1.12,1.12,0,0,1,1.13-1.13h.55l1.2-.14a1.14,1.14,0,0,1,1.13,1.13v1.39a1.14,1.14,0,0,1-1.13,1.14h-.44l-.56.12Z"/><path class="ea75b60a-a108-4246-ad54-9cf9f2f37b79" d="M108.31,106.83a1.12,1.12,0,0,1-1.12-1.13V100a1.13,1.13,0,1,1,2.25,0v5.71A1.12,1.12,0,0,1,108.31,106.83Z"/><path class="ea75b60a-a108-4246-ad54-9cf9f2f37b79" d="M115.39,106.83a1.12,1.12,0,0,1-1.13-1.13V100a1.13,1.13,0,0,1,2.26,0v5.71A1.13,1.13,0,0,1,115.39,106.83Z"/><path class="ea75b60a-a108-4246-ad54-9cf9f2f37b79" d="M122.46,106.85a1.13,1.13,0,0,1-1.13-1.13V100a1.13,1.13,0,1,1,2.26,0v5.71A1.14,1.14,0,0,1,122.46,106.85Z"/><path class="ea75b60a-a108-4246-ad54-9cf9f2f37b79" d="M62.85,106.83a1.13,1.13,0,0,1-1.13-1.13V100A1.13,1.13,0,0,1,64,100v5.71A1.12,1.12,0,0,1,62.85,106.83Z"/><path class="ea75b60a-a108-4246-ad54-9cf9f2f37b79" d="M69.92,106.83a1.12,1.12,0,0,1-1.12-1.13V100a1.13,1.13,0,1,1,2.25,0v5.71A1.12,1.12,0,0,1,69.92,106.83Z"/><path class="ea75b60a-a108-4246-ad54-9cf9f2f37b79" d="M77,106.85a1.13,1.13,0,0,1-1.13-1.13V100a1.13,1.13,0,1,1,2.26,0v5.71A1.14,1.14,0,0,1,77,106.85Z"/><path class="ea75b60a-a108-4246-ad54-9cf9f2f37b79" d="M128.58,117.58H56.71a1.13,1.13,0,0,1,0-2.26h71.87a1.13,1.13,0,0,1,0,2.26Z"/><path class="ea75b60a-a108-4246-ad54-9cf9f2f37b79" d="M73.52,83H1.42A1.13,1.13,0,0,1,.29,81.84V67.09A1.13,1.13,0,0,1,1.42,66H26.05a1.13,1.13,0,1,1,0,2.26H2.55V80.71H72.39V68.22H49.32a1.13,1.13,0,0,1,0-2.26h24.2a1.13,1.13,0,0,1,1.13,1.13V81.84A1.13,1.13,0,0,1,73.52,83Z"/><path class="ea75b60a-a108-4246-ad54-9cf9f2f37b79" d="M45.13,83H29.81a1.14,1.14,0,0,1-1.13-1.13v-8.4a1.13,1.13,0,0,1,1.13-1.13H45.13a1.13,1.13,0,0,1,1.13,1.13v8.4A1.14,1.14,0,0,1,45.13,83ZM30.94,80.71H44V74.57H30.94Z"/><path class="ea75b60a-a108-4246-ad54-9cf9f2f37b79" d="M26.05,83a1.14,1.14,0,0,1-1.13-1.13V60.58a1.14,1.14,0,0,1,1.13-1.13h6.08a1.14,1.14,0,0,1,1.13,1.13V73.44a1.13,1.13,0,1,1-2.26,0V61.71H27.18V81.84A1.13,1.13,0,0,1,26.05,83Z"/><path class="ea75b60a-a108-4246-ad54-9cf9f2f37b79" d="M48.89,83a1.14,1.14,0,0,1-1.13-1.13V61.71H43.94V73.44a1.13,1.13,0,1,1-2.26,0V60.58a1.14,1.14,0,0,1,1.13-1.13h6.08A1.14,1.14,0,0,1,50,60.58V81.84A1.14,1.14,0,0,1,48.89,83Z"/><path class="ea75b60a-a108-4246-ad54-9cf9f2f37b79" d="M42.81,62.73H32.13a1.13,1.13,0,0,1,0-2.26H42.81a1.13,1.13,0,0,1,0,2.26Z"/><path class="ea75b60a-a108-4246-ad54-9cf9f2f37b79" d="M38.19,68.22h-6a1.13,1.13,0,0,1,0-2.26h6a1.13,1.13,0,0,1,0,2.26Z"/><path class="ea75b60a-a108-4246-ad54-9cf9f2f37b79" d="M33.1,82.52A1.14,1.14,0,0,1,32,81.39v-4a1.13,1.13,0,0,1,2.26,0v4A1.14,1.14,0,0,1,33.1,82.52Z"/><path class="ea75b60a-a108-4246-ad54-9cf9f2f37b79" d="M11.61,74.08H6.84a1.13,1.13,0,0,1,0-2.26h4.77a1.13,1.13,0,1,1,0,2.26Z"/><path class="ea75b60a-a108-4246-ad54-9cf9f2f37b79" d="M20.85,74.08H16.09a1.13,1.13,0,0,1,0-2.26h4.76a1.13,1.13,0,1,1,0,2.26Z"/><path class="ea75b60a-a108-4246-ad54-9cf9f2f37b79" d="M58.86,74.08H54.09a1.13,1.13,0,0,1,0-2.26h4.77a1.13,1.13,0,0,1,0,2.26Z"/><path class="ea75b60a-a108-4246-ad54-9cf9f2f37b79" d="M68.1,74.08H63.34a1.13,1.13,0,0,1,0-2.26H68.1a1.13,1.13,0,0,1,0,2.26Z"/><path class="ea75b60a-a108-4246-ad54-9cf9f2f37b79" d="M37.47,61.86a1.14,1.14,0,0,1-1.13-1.13V55.92a1.13,1.13,0,1,1,2.26,0v4.81A1.14,1.14,0,0,1,37.47,61.86Z"/><path class="ea75b60a-a108-4246-ad54-9cf9f2f37b79" d="M37.74,58.58a1.14,1.14,0,0,1-1.13-1.13,1.09,1.09,0,0,1,.25-.7,1.09,1.09,0,0,1-.25-.7,1.14,1.14,0,0,1,1.13-1.13h.56l1.19-.13a1.12,1.12,0,0,1,1.13,1.13V57.3a1.15,1.15,0,0,1-1.13,1.15h-.44l-.56.11Z"/><path class="ea75b60a-a108-4246-ad54-9cf9f2f37b79" d="M73.52,87.33H1.42a1.13,1.13,0,1,1,0-2.25h72.1a1.13,1.13,0,1,1,0,2.25Z"/><path class="ea75b60a-a108-4246-ad54-9cf9f2f37b79" d="M83.74,40.21a1.13,1.13,0,0,1-1.12-1.13v-2.9a1.13,1.13,0,0,1,2.25,0v2.9A1.13,1.13,0,0,1,83.74,40.21Z"/><path class="ea75b60a-a108-4246-ad54-9cf9f2f37b79" d="M109.68,40.21a1.14,1.14,0,0,1-1.13-1.13v-2.9a1.13,1.13,0,0,1,2.26,0v2.9A1.13,1.13,0,0,1,109.68,40.21Z"/><path class="ea75b60a-a108-4246-ad54-9cf9f2f37b79" d="M28.39,41.45a5.84,5.84,0,1,1,5.84-5.84A5.85,5.85,0,0,1,28.39,41.45Zm0-9.42A3.58,3.58,0,1,0,32,35.61,3.59,3.59,0,0,0,28.39,32Z"/></g></svg>