<svg xmlns="http://www.w3.org/2000/svg" xmlns:xlink="http://www.w3.org/1999/xlink" viewBox="0 0 130 130"><defs><style>.eeff1f0f-fe71-475f-bd54-0912643f533e{fill:none;}.aa561161-23ea-4cdb-b02c-03e1813f4b48{fill:#fff;}.b1a3a194-9ce5-48ec-8285-7a494b1838d3{clip-path:url(#e3a83b25-28d5-4bb4-b11d-e271162e36f0);}</style><clipPath id="e3a83b25-28d5-4bb4-b11d-e271162e36f0"><polygon class="eeff1f0f-fe71-475f-bd54-0912643f533e" points="64.53 68.04 73.69 22.89 128.38 26.57 122.83 71.5 78.19 68.42 73.55 82.56 69.03 70.14 64.53 68.04"/></clipPath></defs><title>icon</title><g id="a137012a-6132-4d0f-a8ed-58fada6d3fb4" data-name="圖層 1"><path class="aa561161-23ea-4cdb-b02c-03e1813f4b48" d="M30.16,94.59a1.14,1.14,0,0,1-.9-.45A48,48,0,0,1,19.52,65a1.13,1.13,0,0,1,2.26,0,45.74,45.74,0,0,0,9.29,27.78,1.14,1.14,0,0,1-.91,1.81Z"/><path class="aa561161-23ea-4cdb-b02c-03e1813f4b48" d="M106.77,93.23a1.15,1.15,0,0,1-.64-.2,1.14,1.14,0,0,1-.28-1.58,45.64,45.64,0,0,0,7.4-17.26,1.13,1.13,0,0,1,2.22.45,48,48,0,0,1-7.77,18.11A1.14,1.14,0,0,1,106.77,93.23Z"/><path class="aa561161-23ea-4cdb-b02c-03e1813f4b48" d="M92.29,25.53a1,1,0,0,1-.58-.17,46.3,46.3,0,0,0-45.72-1,1.13,1.13,0,1,1-1.07-2,48.49,48.49,0,0,1,48,1.05,1.13,1.13,0,0,1-.58,2.1Z"/><path class="aa561161-23ea-4cdb-b02c-03e1813f4b48" d="M50.4,60.38h-.2L18.15,54.72a1.12,1.12,0,0,1-.85-1.54L29.37,24a1.14,1.14,0,0,1,.76-.66,1.12,1.12,0,0,1,1,.21L57,44.25a1.13,1.13,0,0,1,.33,1.31L51.44,59.69A1.11,1.11,0,0,1,50.4,60.38ZM19.92,52.74,49.7,58l5.17-12.5-24-19.25Z"/><path class="aa561161-23ea-4cdb-b02c-03e1813f4b48" d="M55.35,62.43a1.07,1.07,0,0,1-.43-.09l-5-2a1.13,1.13,0,0,1,.86-2.09l3.91,1.61,5-12-3.9-1.62a1.13,1.13,0,1,1,.86-2.08l4.95,2a1.14,1.14,0,0,1,.61.61,1.1,1.1,0,0,1,0,.87L56.39,61.73A1.12,1.12,0,0,1,55.35,62.43Z"/><path class="aa561161-23ea-4cdb-b02c-03e1813f4b48" d="M38.11,73.35a1.11,1.11,0,0,1-.43-.09l-5.25-2.17a1.14,1.14,0,0,1-.62-1.48L37,57.17a1.11,1.11,0,0,1,1.47-.61A1.13,1.13,0,0,1,39.05,58l-4.72,11.4,3.17,1.31,5.1-12.33a1.13,1.13,0,1,1,2.09.87L39.16,72.65A1.13,1.13,0,0,1,38.11,73.35Z"/><path class="aa561161-23ea-4cdb-b02c-03e1813f4b48" d="M15.83,27.36A1.13,1.13,0,0,1,15,27l-3.67-3.65a1.12,1.12,0,0,1,0-1.59,1.13,1.13,0,0,1,1.6,0l3.67,3.65a1.13,1.13,0,0,1-.8,1.93Z"/><path class="aa561161-23ea-4cdb-b02c-03e1813f4b48" d="M11.2,34.69a1.11,1.11,0,0,1-.43-.09L6.46,32.82a1.13,1.13,0,1,1,.86-2.09l4.31,1.78a1.13,1.13,0,0,1-.43,2.18Z"/><path class="aa561161-23ea-4cdb-b02c-03e1813f4b48" d="M9.31,43.14H4.13a1.13,1.13,0,1,1,0-2.25H9.31a1.13,1.13,0,0,1,0,2.26Z"/><g class="b1a3a194-9ce5-48ec-8285-7a494b1838d3"><path class="aa561161-23ea-4cdb-b02c-03e1813f4b48" d="M66.38,96.13a3,3,0,0,1-2.53-1.4,2.93,2.93,0,0,1-.38-2.25L78.09,28.76a3,3,0,0,1,5.82,1.34L69.28,93.81A3,3,0,0,1,68,95.67,3,3,0,0,1,66.38,96.13ZM81,28.7a.76.76,0,0,0-.72.57L65.67,93a.72.72,0,0,0,.54.87h0a.71.71,0,0,0,.55-.09.76.76,0,0,0,.32-.45L81.71,29.59a.73.73,0,0,0-.55-.87Z"/><path class="aa561161-23ea-4cdb-b02c-03e1813f4b48" d="M115.85,66.37l-.23,0L103,63.72H88.6a1,1,0,0,1-.24,0L76.22,61.07a1.13,1.13,0,0,1,.47-2.21l12,2.6h14.43l.24,0L115,63.91l6.48-28.24L106.62,32,95.71,33.3a1.15,1.15,0,0,1-.37,0L83.2,30.66a1.12,1.12,0,1,1,.47-2.2l12,2.58,10.93-1.29a.91.91,0,0,1,.4,0l16.14,4a1.13,1.13,0,0,1,.83,1.35l-7,30.4A1.12,1.12,0,0,1,115.85,66.37Z"/></g><path class="aa561161-23ea-4cdb-b02c-03e1813f4b48" d="M49.84,119.37a4.4,4.4,0,0,1-4.13-2.9L32.25,79.53a4.39,4.39,0,0,1,2.63-5.63l24.75-9a1.14,1.14,0,0,1,.87,0l9,4.2a1.11,1.11,0,0,1,.58.64l12.17,33.4a4.41,4.41,0,0,1-2.62,5.64l-28.3,10.3A4.36,4.36,0,0,1,49.84,119.37ZM60,67.17,35.65,76a2.13,2.13,0,0,0-1.27,2.74L47.83,115.7A2.15,2.15,0,0,0,50.57,117l28.29-10.31a2.13,2.13,0,0,0,1.28-2.73l-12-33Z"/><path class="aa561161-23ea-4cdb-b02c-03e1813f4b48" d="M64.38,72.76a4.41,4.41,0,0,1-4.13-2.89L59,66.33a1.13,1.13,0,0,1,1.54-1.41l9,4.2a1.13,1.13,0,0,1-.09,2.08l-3.54,1.29A4.36,4.36,0,0,1,64.38,72.76ZM62,68.12l.35,1h0a2.14,2.14,0,0,0,2.74,1.27l1-.36Z"/><path class="aa561161-23ea-4cdb-b02c-03e1813f4b48" d="M43.58,85.35a1.13,1.13,0,0,1-.39-2.19l4.87-1.78a1.13,1.13,0,0,1,.78,2.13L44,85.28A1.07,1.07,0,0,1,43.58,85.35Z"/><path class="aa561161-23ea-4cdb-b02c-03e1813f4b48" d="M52,108.58a1.13,1.13,0,0,1-.39-2.19l19.57-7.13a1.13,1.13,0,1,1,.77,2.12l-19.57,7.13A1.22,1.22,0,0,1,52,108.58Z"/><path class="aa561161-23ea-4cdb-b02c-03e1813f4b48" d="M49.22,100.83a1.12,1.12,0,0,1-1.06-.74,1.13,1.13,0,0,1,.67-1.45L68.4,91.52a1.13,1.13,0,1,1,.77,2.12L49.6,100.77A1.21,1.21,0,0,1,49.22,100.83Z"/><path class="aa561161-23ea-4cdb-b02c-03e1813f4b48" d="M46.4,93.09a1.12,1.12,0,0,1-1.06-.74A1.13,1.13,0,0,1,46,90.9l19.57-7.13a1.13,1.13,0,0,1,.77,2.13L46.78,93A1,1,0,0,1,46.4,93.09Z"/><path class="aa561161-23ea-4cdb-b02c-03e1813f4b48" d="M94.37,110.33a3.91,3.91,0,0,1-.75-.08l-1.8-.35a3.9,3.9,0,0,1-3.08-4.56L94.24,77a1.14,1.14,0,0,1,.47-.72,1.12,1.12,0,0,1,.85-.17l7.23,1.4a1.13,1.13,0,0,1,.89,1.32l-5.49,28.31a3.91,3.91,0,0,1-3.82,3.16Zm1.87-31.76L91,105.77a1.67,1.67,0,0,0,.25,1.23,1.58,1.58,0,0,0,1,.68l1.81.35a1.56,1.56,0,0,0,1.22-.25,1.6,1.6,0,0,0,.69-1l5.28-27.2Z"/><path class="aa561161-23ea-4cdb-b02c-03e1813f4b48" d="M102.57,79.78A1.12,1.12,0,0,1,101.5,79l-1.75-5.52L96.22,78a1.12,1.12,0,0,1-1.59.16,1.14,1.14,0,0,1-.16-1.59l3.69-4.47a2.13,2.13,0,0,1,2.08-.73,2.16,2.16,0,0,1,1.66,1.43l1.75,5.55a1.12,1.12,0,0,1-.74,1.41A1,1,0,0,1,102.57,79.78Z"/></g></svg>